<svg version="1.1" viewBox="0.0 0.0 752.0 465.0" fill="none" stroke="none" stroke-linecap="square" stroke-miterlimit="10" width="752" height="465" xmlns:xlink="http://www.w3.org/1999/xlink" xmlns="http://www.w3.org/2000/svg"><path fill="#ffffff" d="M0 0L752.0 0L752.0 465.0L0 465.0L0 0Z" fill-rule="nonzero"/><path stroke="#333333" stroke-width="1.0" stroke-linecap="butt" d="M148.5 349.5L728.5 349.5" fill-rule="nonzero"/><path stroke="#cccccc" stroke-width="1.0" stroke-linecap="butt" d="M148.5 270.5L728.5 270.5" fill-rule="nonzero"/><path stroke="#cccccc" stroke-width="1.0" stroke-linecap="butt" d="M148.5 191.5L728.5 191.5" fill-rule="nonzero"/><path stroke="#cccccc" stroke-width="1.0" stroke-linecap="butt" d="M148.5 112.5L728.5 112.5" fill-rule="nonzero"/><path stroke="#cccccc" stroke-width="1.0" stroke-linecap="butt" d="M148.5 32.5L728.5 32.5" fill-rule="nonzero"/><clipPath id="id_0"><path d="M148.25 32.75L728.75 32.75L728.75 349.75L148.25 349.75L148.25 32.75Z" clip-rule="nonzero"/></clipPath><path stroke="#000000" stroke-width="0.0" stroke-linecap="butt" stroke-opacity="0.0" clip-path="url(#id_0)" d="M396.0 350.0L235.0 350.0L235.0 349.0C235.0 348.44772 235.44771 348.0 236.0 348.0L395.0 348.0C395.55228 348.0 396.0 348.44772 396.0 349.0Z" fill-rule="nonzero"/><path fill="#4285f4" clip-path="url(#id_0)" d="M396.0 350.0L235.0 350.0L235.0 349.0C235.0 348.44772 235.44771 348.0 236.0 348.0L395.0 348.0C395.55228 348.0 396.0 348.44772 396.0 349.0Z" fill-rule="nonzero"/><path stroke="#000000" stroke-width="0.0" stroke-linecap="butt" stroke-opacity="0.0" clip-path="url(#id_0)" d="M643.0 350.0L482.0 350.0L482.0 348.5C482.0 347.67157 482.67157 347.0 483.5 347.0L641.5 347.0C642.3284 347.0 643.0 347.67157 643.0 348.5Z" fill-rule="nonzero"/><path fill="#4285f4" clip-path="url(#id_0)" d="M643.0 350.0L482.0 350.0L482.0 348.5C482.0 347.67157 482.67157 347.0 483.5 347.0L641.5 347.0C642.3284 347.0 643.0 347.67157 643.0 348.5Z" fill-rule="nonzero"/><path stroke="#ffffff" stroke-width="3.0" stroke-linejoin="round" stroke-linecap="round" d="M306.07812 322.98862Q306.07812 325.5355 305.20312 326.76987Q304.34375 328.00424 302.5 328.00424Q300.6875 328.00424 299.8125 326.80112Q298.9375 325.58237 298.90625 323.19174L298.90625 321.25424Q298.90625 318.75424 299.76562 317.5355Q300.64062 316.31674 302.48438 316.31674Q304.32812 316.31674 305.1875 317.48862Q306.0625 318.6605 306.07812 321.11362L306.07812 322.98862ZM304.64062 321.01987Q304.64062 319.17612 304.125 318.348Q303.60938 317.50424 302.48438 317.50424Q301.375 317.50424 300.85938 318.348Q300.35938 319.17612 300.34375 320.9105L300.34375 323.223Q300.34375 325.06674 300.875 325.94174Q301.42188 326.81674 302.5 326.81674Q303.57812 326.81674 304.09375 325.98862Q304.60938 325.1605 304.64062 323.37924L304.64062 321.01987ZM308.125 327.08237Q308.125 326.70737 308.34375 326.45737Q308.57812 326.20737 309.01562 326.20737Q309.46875 326.20737 309.6875 326.45737Q309.92188 326.70737 309.92188 327.08237Q309.92188 327.44174 309.6875 327.69174Q309.46875 327.94174 309.01562 327.94174Q308.57812 327.94174 308.34375 327.69174Q308.125 327.44174 308.125 327.08237ZM317.625 316.45737L317.625 317.69174L317.35938 317.69174Q315.67188 317.723 314.67188 318.69174Q313.67188 319.6605 313.51562 321.4105Q314.40625 320.37924 315.96875 320.37924Q317.45312 320.37924 318.32812 321.42612Q319.21875 322.473 319.21875 324.12924Q319.21875 325.89487 318.26562 326.95737Q317.3125 328.00424 315.70312 328.00424Q314.0625 328.00424 313.04688 326.75424Q312.03125 325.48862 312.03125 323.51987L312.03125 322.95737Q312.03125 319.81674 313.375 318.1605Q314.71875 316.50424 317.35938 316.45737L317.625 316.45737ZM315.71875 321.58237Q314.98438 321.58237 314.35938 322.0355Q313.73438 322.473 313.48438 323.14487L313.48438 323.67612Q313.48438 325.08237 314.10938 325.94174Q314.75 326.80112 315.70312 326.80112Q316.67188 326.80112 317.23438 326.08237Q317.79688 325.36362 317.79688 324.20737Q317.79688 323.0355 317.21875 322.31674Q316.65625 321.58237 315.71875 321.58237ZM320.82812 318.6605Q320.82812 317.62924 321.46875 316.973Q322.125 316.30112 323.15625 316.30112Q324.1875 316.30112 324.82812 316.973Q325.48438 317.64487 325.48438 318.70737L325.48438 319.25424Q325.48438 320.2855 324.82812 320.94174Q324.17188 321.598 323.17188 321.598Q322.15625 321.598 321.48438 320.94174Q320.82812 320.2855 320.82812 319.20737L320.82812 318.6605ZM321.90625 319.25424Q321.90625 319.86362 322.25 320.26987Q322.59375 320.6605 323.17188 320.6605Q323.71875 320.6605 324.0625 320.2855Q324.40625 319.89487 324.40625 319.223L324.40625 318.6605Q324.40625 318.05112 324.0625 317.6605Q323.73438 317.25424 323.15625 317.25424Q322.57812 317.25424 322.23438 317.6605Q321.90625 318.05112 321.90625 318.69174L321.90625 319.25424ZM326.35938 325.05112Q326.35938 324.0355 327.01562 323.37924Q327.67188 322.70737 328.6875 322.70737Q329.71875 322.70737 330.375 323.36362Q331.03125 324.01987 331.03125 325.11362L331.03125 325.6605Q331.03125 326.69174 330.375 327.36362Q329.71875 328.01987 328.70312 328.01987Q327.6875 328.01987 327.01562 327.36362Q326.35938 326.70737 326.35938 325.61362L326.35938 325.05112ZM327.4375 325.6605Q327.4375 326.2855 327.78125 326.67612Q328.125 327.06674 328.70312 327.06674Q329.26562 327.06674 329.59375 326.69174Q329.9375 326.30112 329.9375 325.62924L329.9375 325.05112Q329.9375 324.44174 329.59375 324.05112Q329.26562 323.6605 328.6875 323.6605Q328.14062 323.6605 327.78125 324.05112Q327.4375 324.42612 327.4375 325.08237L327.4375 325.6605ZM323.5 326.98862L322.67188 326.473L328.23438 317.58237L329.04688 318.098L323.5 326.98862Z" fill-rule="nonzero"/><path fill="#4285f4" d="M306.07812 322.98862Q306.07812 325.5355 305.20312 326.76987Q304.34375 328.00424 302.5 328.00424Q300.6875 328.00424 299.8125 326.80112Q298.9375 325.58237 298.90625 323.19174L298.90625 321.25424Q298.90625 318.75424 299.76562 317.5355Q300.64062 316.31674 302.48438 316.31674Q304.32812 316.31674 305.1875 317.48862Q306.0625 318.6605 306.07812 321.11362L306.07812 322.98862ZM304.64062 321.01987Q304.64062 319.17612 304.125 318.348Q303.60938 317.50424 302.48438 317.50424Q301.375 317.50424 300.85938 318.348Q300.35938 319.17612 300.34375 320.9105L300.34375 323.223Q300.34375 325.06674 300.875 325.94174Q301.42188 326.81674 302.5 326.81674Q303.57812 326.81674 304.09375 325.98862Q304.60938 325.1605 304.64062 323.37924L304.64062 321.01987ZM308.125 327.08237Q308.125 326.70737 308.34375 326.45737Q308.57812 326.20737 309.01562 326.20737Q309.46875 326.20737 309.6875 326.45737Q309.92188 326.70737 309.92188 327.08237Q309.92188 327.44174 309.6875 327.69174Q309.46875 327.94174 309.01562 327.94174Q308.57812 327.94174 308.34375 327.69174Q308.125 327.44174 308.125 327.08237ZM317.625 316.45737L317.625 317.69174L317.35938 317.69174Q315.67188 317.723 314.67188 318.69174Q313.67188 319.6605 313.51562 321.4105Q314.40625 320.37924 315.96875 320.37924Q317.45312 320.37924 318.32812 321.42612Q319.21875 322.473 319.21875 324.12924Q319.21875 325.89487 318.26562 326.95737Q317.3125 328.00424 315.70312 328.00424Q314.0625 328.00424 313.04688 326.75424Q312.03125 325.48862 312.03125 323.51987L312.03125 322.95737Q312.03125 319.81674 313.375 318.1605Q314.71875 316.50424 317.35938 316.45737L317.625 316.45737ZM315.71875 321.58237Q314.98438 321.58237 314.35938 322.0355Q313.73438 322.473 313.48438 323.14487L313.48438 323.67612Q313.48438 325.08237 314.10938 325.94174Q314.75 326.80112 315.70312 326.80112Q316.67188 326.80112 317.23438 326.08237Q317.79688 325.36362 317.79688 324.20737Q317.79688 323.0355 317.21875 322.31674Q316.65625 321.58237 315.71875 321.58237ZM320.82812 318.6605Q320.82812 317.62924 321.46875 316.973Q322.125 316.30112 323.15625 316.30112Q324.1875 316.30112 324.82812 316.973Q325.48438 317.64487 325.48438 318.70737L325.48438 319.25424Q325.48438 320.2855 324.82812 320.94174Q324.17188 321.598 323.17188 321.598Q322.15625 321.598 321.48438 320.94174Q320.82812 320.2855 320.82812 319.20737L320.82812 318.6605ZM321.90625 319.25424Q321.90625 319.86362 322.25 320.26987Q322.59375 320.6605 323.17188 320.6605Q323.71875 320.6605 324.0625 320.2855Q324.40625 319.89487 324.40625 319.223L324.40625 318.6605Q324.40625 318.05112 324.0625 317.6605Q323.73438 317.25424 323.15625 317.25424Q322.57812 317.25424 322.23438 317.6605Q321.90625 318.05112 321.90625 318.69174L321.90625 319.25424ZM326.35938 325.05112Q326.35938 324.0355 327.01562 323.37924Q327.67188 322.70737 328.6875 322.70737Q329.71875 322.70737 330.375 323.36362Q331.03125 324.01987 331.03125 325.11362L331.03125 325.6605Q331.03125 326.69174 330.375 327.36362Q329.71875 328.01987 328.70312 328.01987Q327.6875 328.01987 327.01562 327.36362Q326.35938 326.70737 326.35938 325.61362L326.35938 325.05112ZM327.4375 325.6605Q327.4375 326.2855 327.78125 326.67612Q328.125 327.06674 328.70312 327.06674Q329.26562 327.06674 329.59375 326.69174Q329.9375 326.30112 329.9375 325.62924L329.9375 325.05112Q329.9375 324.44174 329.59375 324.05112Q329.26562 323.6605 328.6875 323.6605Q328.14062 323.6605 327.78125 324.05112Q327.4375 324.42612 327.4375 325.08237L327.4375 325.6605ZM323.5 326.98862L322.67188 326.473L328.23438 317.58237L329.04688 318.098L323.5 326.98862Z" fill-rule="nonzero"/><path stroke="#ffffff" stroke-width="3.0" stroke-linejoin="round" stroke-linecap="round" d="M553.0781 322.3546Q553.0781 324.9015 552.2031 326.13586Q551.34375 327.37024 549.5 327.37024Q547.6875 327.37024 546.8125 326.1671Q545.9375 324.94836 545.90625 322.55774L545.90625 320.62024Q545.90625 318.12024 546.7656 316.9015Q547.6406 315.68274 549.4844 315.68274Q551.3281 315.68274 552.1875 316.8546Q553.0625 318.0265 553.0781 320.4796L553.0781 322.3546ZM551.6406 320.38586Q551.6406 318.5421 551.125 317.714Q550.6094 316.87024 549.4844 316.87024Q548.375 316.87024 547.8594 317.714Q547.3594 318.5421 547.34375 320.2765L547.34375 322.589Q547.34375 324.43274 547.875 325.30774Q548.4219 326.18274 549.5 326.18274Q550.5781 326.18274 551.09375 325.3546Q551.6094 324.5265 551.6406 322.74524L551.6406 320.38586ZM555.125 326.44836Q555.125 326.07336 555.34375 325.82336Q555.5781 325.57336 556.0156 325.57336Q556.46875 325.57336 556.6875 325.82336Q556.9219 326.07336 556.9219 326.44836Q556.9219 326.80774 556.6875 327.05774Q556.46875 327.30774 556.0156 327.30774Q555.5781 327.30774 555.34375 327.05774Q555.125 326.80774 555.125 326.44836ZM565.84375 318.80774Q565.84375 319.6515 565.3906 320.32336Q564.9531 320.9796 564.1875 321.3546Q565.0781 321.74524 565.59375 322.4796Q566.1094 323.214 566.1094 324.13586Q566.1094 325.62024 565.1094 326.49524Q564.125 327.37024 562.5 327.37024Q560.8594 327.37024 559.8594 326.49524Q558.875 325.6046 558.875 324.13586Q558.875 323.214 559.375 322.4796Q559.8906 321.7296 560.78125 321.3546Q560.0156 320.9796 559.5781 320.32336Q559.1406 319.6515 559.1406 318.80774Q559.1406 317.37024 560.0625 316.5265Q560.9844 315.68274 562.5 315.68274Q564.0 315.68274 564.9219 316.5265Q565.84375 317.37024 565.84375 318.80774ZM564.6719 324.1046Q564.6719 323.1515 564.0625 322.55774Q563.4531 321.94836 562.46875 321.94836Q561.5 321.94836 560.90625 322.5421Q560.3281 323.13586 560.3281 324.1046Q560.3281 325.07336 560.8906 325.63586Q561.46875 326.18274 562.5 326.18274Q563.5156 326.18274 564.09375 325.63586Q564.6719 325.07336 564.6719 324.1046ZM562.5 316.87024Q561.6406 316.87024 561.1094 317.4015Q560.59375 317.9171 560.59375 318.82336Q560.59375 319.69836 561.1094 320.2296Q561.625 320.76086 562.4844 320.76086Q563.3594 320.76086 563.875 320.2296Q564.40625 319.69836 564.40625 318.839Q564.40625 317.964 563.8594 317.4171Q563.3281 316.87024 562.5 316.87024ZM567.8281 318.0265Q567.8281 316.99524 568.46875 316.339Q569.125 315.6671 570.15625 315.6671Q571.1875 315.6671 571.8281 316.339Q572.4844 317.01086 572.4844 318.07336L572.4844 318.62024Q572.4844 319.6515 571.8281 320.30774Q571.1719 320.964 570.1719 320.964Q569.15625 320.964 568.4844 320.30774Q567.8281 319.6515 567.8281 318.57336L567.8281 318.0265ZM568.90625 318.62024Q568.90625 319.2296 569.25 319.63586Q569.59375 320.0265 570.1719 320.0265Q570.71875 320.0265 571.0625 319.6515Q571.40625 319.26086 571.40625 318.589L571.40625 318.0265Q571.40625 317.4171 571.0625 317.0265Q570.7344 316.62024 570.15625 316.62024Q569.5781 316.62024 569.2344 317.0265Q568.90625 317.4171 568.90625 318.05774L568.90625 318.62024ZM573.3594 324.4171Q573.3594 323.4015 574.0156 322.74524Q574.6719 322.07336 575.6875 322.07336Q576.71875 322.07336 577.375 322.7296Q578.03125 323.38586 578.03125 324.4796L578.03125 325.0265Q578.03125 326.05774 577.375 326.7296Q576.71875 327.38586 575.7031 327.38586Q574.6875 327.38586 574.0156 326.7296Q573.3594 326.07336 573.3594 324.9796L573.3594 324.4171ZM574.4375 325.0265Q574.4375 325.6515 574.78125 326.0421Q575.125 326.43274 575.7031 326.43274Q576.2656 326.43274 576.59375 326.05774Q576.9375 325.6671 576.9375 324.99524L576.9375 324.4171Q576.9375 323.80774 576.59375 323.4171Q576.2656 323.0265 575.6875 323.0265Q575.1406 323.0265 574.78125 323.4171Q574.4375 323.7921 574.4375 324.44836L574.4375 325.0265ZM570.5 326.3546L569.6719 325.839L575.2344 316.94836L576.0469 317.464L570.5 326.3546Z" fill-rule="nonzero"/><path fill="#4285f4" d="M553.0781 322.3546Q553.0781 324.9015 552.2031 326.13586Q551.34375 327.37024 549.5 327.37024Q547.6875 327.37024 546.8125 326.1671Q545.9375 324.94836 545.90625 322.55774L545.90625 320.62024Q545.90625 318.12024 546.7656 316.9015Q547.6406 315.68274 549.4844 315.68274Q551.3281 315.68274 552.1875 316.8546Q553.0625 318.0265 553.0781 320.4796L553.0781 322.3546ZM551.6406 320.38586Q551.6406 318.5421 551.125 317.714Q550.6094 316.87024 549.4844 316.87024Q548.375 316.87024 547.8594 317.714Q547.3594 318.5421 547.34375 320.2765L547.34375 322.589Q547.34375 324.43274 547.875 325.30774Q548.4219 326.18274 549.5 326.18274Q550.5781 326.18274 551.09375 325.3546Q551.6094 324.5265 551.6406 322.74524L551.6406 320.38586ZM555.125 326.44836Q555.125 326.07336 555.34375 325.82336Q555.5781 325.57336 556.0156 325.57336Q556.46875 325.57336 556.6875 325.82336Q556.9219 326.07336 556.9219 326.44836Q556.9219 326.80774 556.6875 327.05774Q556.46875 327.30774 556.0156 327.30774Q555.5781 327.30774 555.34375 327.05774Q555.125 326.80774 555.125 326.44836ZM565.84375 318.80774Q565.84375 319.6515 565.3906 320.32336Q564.9531 320.9796 564.1875 321.3546Q565.0781 321.74524 565.59375 322.4796Q566.1094 323.214 566.1094 324.13586Q566.1094 325.62024 565.1094 326.49524Q564.125 327.37024 562.5 327.37024Q560.8594 327.37024 559.8594 326.49524Q558.875 325.6046 558.875 324.13586Q558.875 323.214 559.375 322.4796Q559.8906 321.7296 560.78125 321.3546Q560.0156 320.9796 559.5781 320.32336Q559.1406 319.6515 559.1406 318.80774Q559.1406 317.37024 560.0625 316.5265Q560.9844 315.68274 562.5 315.68274Q564.0 315.68274 564.9219 316.5265Q565.84375 317.37024 565.84375 318.80774ZM564.6719 324.1046Q564.6719 323.1515 564.0625 322.55774Q563.4531 321.94836 562.46875 321.94836Q561.5 321.94836 560.90625 322.5421Q560.3281 323.13586 560.3281 324.1046Q560.3281 325.07336 560.8906 325.63586Q561.46875 326.18274 562.5 326.18274Q563.5156 326.18274 564.09375 325.63586Q564.6719 325.07336 564.6719 324.1046ZM562.5 316.87024Q561.6406 316.87024 561.1094 317.4015Q560.59375 317.9171 560.59375 318.82336Q560.59375 319.69836 561.1094 320.2296Q561.625 320.76086 562.4844 320.76086Q563.3594 320.76086 563.875 320.2296Q564.40625 319.69836 564.40625 318.839Q564.40625 317.964 563.8594 317.4171Q563.3281 316.87024 562.5 316.87024ZM567.8281 318.0265Q567.8281 316.99524 568.46875 316.339Q569.125 315.6671 570.15625 315.6671Q571.1875 315.6671 571.8281 316.339Q572.4844 317.01086 572.4844 318.07336L572.4844 318.62024Q572.4844 319.6515 571.8281 320.30774Q571.1719 320.964 570.1719 320.964Q569.15625 320.964 568.4844 320.30774Q567.8281 319.6515 567.8281 318.57336L567.8281 318.0265ZM568.90625 318.62024Q568.90625 319.2296 569.25 319.63586Q569.59375 320.0265 570.1719 320.0265Q570.71875 320.0265 571.0625 319.6515Q571.40625 319.26086 571.40625 318.589L571.40625 318.0265Q571.40625 317.4171 571.0625 317.0265Q570.7344 316.62024 570.15625 316.62024Q569.5781 316.62024 569.2344 317.0265Q568.90625 317.4171 568.90625 318.05774L568.90625 318.62024ZM573.3594 324.4171Q573.3594 323.4015 574.0156 322.74524Q574.6719 322.07336 575.6875 322.07336Q576.71875 322.07336 577.375 322.7296Q578.03125 323.38586 578.03125 324.4796L578.03125 325.0265Q578.03125 326.05774 577.375 326.7296Q576.71875 327.38586 575.7031 327.38586Q574.6875 327.38586 574.0156 326.7296Q573.3594 326.07336 573.3594 324.9796L573.3594 324.4171ZM574.4375 325.0265Q574.4375 325.6515 574.78125 326.0421Q575.125 326.43274 575.7031 326.43274Q576.2656 326.43274 576.59375 326.05774Q576.9375 325.6671 576.9375 324.99524L576.9375 324.4171Q576.9375 323.80774 576.59375 323.4171Q576.2656 323.0265 575.6875 323.0265Q575.1406 323.0265 574.78125 323.4171Q574.4375 323.7921 574.4375 324.44836L574.4375 325.0265ZM570.5 326.3546L569.6719 325.839L575.2344 316.94836L576.0469 317.464L570.5 326.3546Z" fill-rule="nonzero"/><path fill="#424242" d="M353.5 418.6875L353.5 430.28125Q353.48438 432.70312 351.96875 434.25Q350.46875 435.78125 347.89062 435.96875L347.29688 435.98438Q344.5 435.98438 342.82812 434.46875Q341.17188 432.95312 341.14062 430.3125L341.14062 418.6875L343.375 418.6875L343.375 430.23438Q343.375 432.09375 344.39062 433.125Q345.40625 434.14062 347.29688 434.14062Q349.20312 434.14062 350.21875 433.125Q351.23438 432.10938 351.23438 430.25L351.23438 418.6875L353.5 418.6875ZM364.53125 432.39062Q364.53125 431.5 363.85938 431.01562Q363.20312 430.53125 361.54688 430.1875Q359.90625 429.82812 358.9375 429.34375Q357.96875 428.84375 357.5 428.17188Q357.04688 427.48438 357.04688 426.54688Q357.04688 424.98438 358.35938 423.90625Q359.6875 422.82812 361.73438 422.82812Q363.89062 422.82812 365.23438 423.95312Q366.57812 425.0625 366.57812 426.79688L364.39062 426.79688Q364.39062 425.90625 363.64062 425.26562Q362.89062 424.60938 361.73438 424.60938Q360.54688 424.60938 359.875 425.125Q359.21875 425.64062 359.21875 426.48438Q359.21875 427.26562 359.82812 427.67188Q360.45312 428.0625 362.07812 428.42188Q363.70312 428.78125 364.70312 429.29688Q365.71875 429.79688 366.20312 430.51562Q366.6875 431.21875 366.6875 432.23438Q366.6875 433.9375 365.32812 434.96875Q363.96875 435.98438 361.8125 435.98438Q360.28125 435.98438 359.10938 435.45312Q357.9375 434.90625 357.26562 433.9375Q356.60938 432.96875 356.60938 431.84375L358.78125 431.84375Q358.84375 432.9375 359.65625 433.57812Q360.46875 434.21875 361.8125 434.21875Q363.03125 434.21875 363.78125 433.71875Q364.53125 433.21875 364.53125 432.39062ZM374.40625 435.98438Q371.82812 435.98438 370.20312 434.29688Q368.59375 432.59375 368.59375 429.76562L368.59375 429.35938Q368.59375 427.46875 369.3125 426.0Q370.03125 424.51562 371.32812 423.67188Q372.625 422.82812 374.14062 422.82812Q376.60938 422.82812 377.96875 424.46875Q379.34375 426.09375 379.34375 429.125L379.34375 430.03125L370.76562 430.03125Q370.8125 431.90625 371.85938 433.0625Q372.90625 434.21875 374.51562 434.21875Q375.67188 434.21875 376.46875 433.75Q377.26562 433.28125 377.85938 432.5L379.1875 433.53125Q377.59375 435.98438 374.40625 435.98438ZM374.14062 424.60938Q372.82812 424.60938 371.9375 425.57812Q371.04688 426.53125 370.82812 428.25L377.1875 428.25L377.1875 428.07812Q377.09375 426.4375 376.29688 425.53125Q375.5 424.60938 374.14062 424.60938ZM389.53125 432.39062Q389.53125 431.5 388.85938 431.01562Q388.20312 430.53125 386.54688 430.1875Q384.90625 429.82812 383.9375 429.34375Q382.96875 428.84375 382.5 428.17188Q382.04688 427.48438 382.04688 426.54688Q382.04688 424.98438 383.35938 423.90625Q384.6875 422.82812 386.73438 422.82812Q388.89062 422.82812 390.23438 423.95312Q391.57812 425.0625 391.57812 426.79688L389.39062 426.79688Q389.39062 425.90625 388.64062 425.26562Q387.89062 424.60938 386.73438 424.60938Q385.54688 424.60938 384.875 425.125Q384.21875 425.64062 384.21875 426.48438Q384.21875 427.26562 384.82812 427.67188Q385.45312 428.0625 387.07812 428.42188Q388.70312 428.78125 389.70312 429.29688Q390.71875 429.79688 391.20312 430.51562Q391.6875 431.21875 391.6875 432.23438Q391.6875 433.9375 390.32812 434.96875Q388.96875 435.98438 386.8125 435.98438Q385.28125 435.98438 384.10938 435.45312Q382.9375 434.90625 382.26562 433.9375Q381.60938 432.96875 381.60938 431.84375L383.78125 431.84375Q383.84375 432.9375 384.65625 433.57812Q385.46875 434.21875 386.8125 434.21875Q388.03125 434.21875 388.78125 433.71875Q389.53125 433.21875 389.53125 432.39062ZM403.07812 420.0L403.07812 423.0625L405.45312 423.0625L405.45312 424.75L403.07812 424.75L403.07812 432.60938Q403.07812 433.375 403.39062 433.75Q403.71875 434.125 404.48438 434.125Q404.85938 434.125 405.51562 433.98438L405.51562 435.75Q404.65625 435.98438 403.84375 435.98438Q402.39062 435.98438 401.65625 435.10938Q400.92188 434.21875 400.92188 432.60938L400.92188 424.75L398.60938 424.75L398.60938 423.0625L400.92188 423.0625L400.92188 420.0L403.07812 420.0ZM412.29688 432.57812L415.25 423.0625L417.5625 423.0625L412.46875 437.70312Q411.28125 440.875 408.70312 440.875L408.29688 440.84375L407.48438 440.6875L407.48438 438.92188L408.07812 438.96875Q409.17188 438.96875 409.78125 438.51562Q410.40625 438.07812 410.79688 436.90625L411.28125 435.60938L406.76562 423.0625L409.125 423.0625L412.29688 432.57812ZM429.85938 429.54688Q429.85938 432.4375 428.53125 434.21875Q427.20312 435.98438 424.9375 435.98438Q422.64062 435.98438 421.3125 434.51562L421.3125 440.625L419.14062 440.625L419.14062 423.0625L421.125 423.0625L421.23438 424.46875Q422.54688 422.82812 424.90625 422.82812Q427.1875 422.82812 428.51562 424.5625Q429.85938 426.28125 429.85938 429.34375L429.85938 429.54688ZM427.6875 429.29688Q427.6875 427.15625 426.76562 425.92188Q425.85938 424.67188 424.26562 424.67188Q422.29688 424.67188 421.3125 426.42188L421.3125 432.48438Q422.28125 434.21875 424.28125 434.21875Q425.84375 434.21875 426.76562 432.98438Q427.6875 431.73438 427.6875 429.29688ZM437.40625 435.98438Q434.82812 435.98438 433.20312 434.29688Q431.59375 432.59375 431.59375 429.76562L431.59375 429.35938Q431.59375 427.46875 432.3125 426.0Q433.03125 424.51562 434.32812 423.67188Q435.625 422.82812 437.14062 422.82812Q439.60938 422.82812 440.96875 424.46875Q442.34375 426.09375 442.34375 429.125L442.34375 430.03125L433.76562 430.03125Q433.8125 431.90625 434.85938 433.0625Q435.90625 434.21875 437.51562 434.21875Q438.67188 434.21875 439.46875 433.75Q440.26562 433.28125 440.85938 432.5L442.1875 433.53125Q440.59375 435.98438 437.40625 435.98438ZM437.14062 424.60938Q435.82812 424.60938 434.9375 425.57812Q434.04688 426.53125 433.82812 428.25L440.1875 428.25L440.1875 428.07812Q440.09375 426.4375 439.29688 425.53125Q438.5 424.60938 437.14062 424.60938ZM455.0625 426.20312L445.28125 426.20312L445.28125 424.32812L455.0625 424.32812L455.0625 426.20312ZM455.0625 431.07812L445.28125 431.07812L445.28125 429.20312L455.0625 429.20312L455.0625 431.07812ZM460.1875 423.0625L460.23438 424.46875Q461.64062 422.82812 464.0 422.82812Q466.65625 422.82812 467.625 424.875Q468.25 423.95312 469.26562 423.39062Q470.28125 422.82812 471.67188 422.82812Q475.84375 422.82812 475.90625 427.25L475.90625 435.75L473.73438 435.75L473.73438 427.375Q473.73438 426.01562 473.10938 425.34375Q472.5 424.67188 471.03125 424.67188Q469.82812 424.67188 469.03125 425.39062Q468.23438 426.10938 468.10938 427.32812L468.10938 435.75L465.92188 435.75L465.92188 427.4375Q465.92188 424.67188 463.21875 424.67188Q461.07812 424.67188 460.29688 426.48438L460.29688 435.75L458.125 435.75L458.125 423.0625L460.1875 423.0625ZM478.5625 429.29688Q478.5625 427.42188 479.29688 425.9375Q480.03125 424.45312 481.32812 423.64062Q482.64062 422.82812 484.32812 422.82812Q486.90625 422.82812 488.5 424.625Q490.10938 426.42188 490.10938 429.39062L490.10938 429.54688Q490.10938 431.40625 489.39062 432.875Q488.6875 434.34375 487.375 435.17188Q486.0625 435.98438 484.34375 435.98438Q481.76562 435.98438 480.15625 434.1875Q478.5625 432.39062 478.5625 429.4375L478.5625 429.29688ZM480.75 429.54688Q480.75 431.65625 481.71875 432.9375Q482.70312 434.21875 484.34375 434.21875Q486.0 434.21875 486.96875 432.92188Q487.9375 431.625 487.9375 429.29688Q487.9375 427.20312 486.95312 425.90625Q485.96875 424.60938 484.32812 424.60938Q482.71875 424.60938 481.73438 425.89062Q480.75 427.17188 480.75 429.54688ZM492.60938 429.29688Q492.60938 426.39062 493.98438 424.60938Q495.375 422.82812 497.625 422.82812Q499.84375 422.82812 501.14062 424.35938L501.14062 417.75L503.3125 417.75L503.3125 435.75L501.32812 435.75L501.21875 434.39062Q499.92188 435.98438 497.59375 435.98438Q495.39062 435.98438 494.0 434.1875Q492.60938 432.375 492.60938 429.46875L492.60938 429.29688ZM494.78125 429.54688Q494.78125 431.70312 495.67188 432.92188Q496.5625 434.14062 498.14062 434.14062Q500.20312 434.14062 501.14062 432.29688L501.14062 426.46875Q500.17188 424.67188 498.15625 424.67188Q496.5625 424.67188 495.67188 425.90625Q494.78125 427.14062 494.78125 429.54688ZM514.96875 434.5Q513.7031 435.98438 511.25 435.98438Q509.23438 435.98438 508.17188 434.8125Q507.10938 433.625 507.09375 431.3125L507.09375 423.0625L509.26562 423.0625L509.26562 431.26562Q509.26562 434.14062 511.60938 434.14062Q514.09375 434.14062 514.90625 432.29688L514.90625 423.0625L517.0781 423.0625L517.0781 435.75L515.0156 435.75L514.96875 434.5ZM522.5 435.75L520.3281 435.75L520.3281 417.75L522.5 417.75L522.5 435.75ZM531.40625 435.98438Q528.8281 435.98438 527.2031 434.29688Q525.59375 432.59375 525.59375 429.76562L525.59375 429.35938Q525.59375 427.46875 526.3125 426.0Q527.03125 424.51562 528.3281 423.67188Q529.625 422.82812 531.1406 422.82812Q533.6094 422.82812 534.96875 424.46875Q536.34375 426.09375 536.34375 429.125L536.34375 430.03125L527.7656 430.03125Q527.8125 431.90625 528.8594 433.0625Q529.90625 434.21875 531.5156 434.21875Q532.6719 434.21875 533.46875 433.75Q534.2656 433.28125 534.8594 432.5L536.1875 433.53125Q534.59375 435.98438 531.40625 435.98438ZM531.1406 424.60938Q529.8281 424.60938 528.9375 425.57812Q528.0469 426.53125 527.8281 428.25L534.1875 428.25L534.1875 428.07812Q534.09375 426.4375 533.2969 425.53125Q532.5 424.60938 531.1406 424.60938Z" fill-rule="nonzero"/><path fill="#424242" d="M39.5625 299.26562L46.25 299.26562L46.25 301.51562L29.1875 301.51562L29.1875 295.21875Q29.1875 292.42188 30.625 290.84375Q32.046875 289.25 34.40625 289.25Q36.890625 289.25 38.234375 290.8125Q39.5625 292.35938 39.5625 295.25L39.5625 299.26562ZM37.734375 299.26562L37.734375 295.21875Q37.734375 293.42188 36.890625 292.46875Q36.03125 291.5 34.421875 291.5Q32.90625 291.5 32.0 292.46875Q31.078125 293.42188 31.03125 295.09375L31.03125 299.26562L37.734375 299.26562ZM46.484375 281.59375Q46.484375 284.17188 44.796875 285.79688Q43.09375 287.40625 40.265625 287.40625L39.859375 287.40625Q37.96875 287.40625 36.5 286.6875Q35.015625 285.96875 34.171875 284.67188Q33.328125 283.375 33.328125 281.85938Q33.328125 279.39062 34.96875 278.03125Q36.59375 276.65625 39.625 276.65625L40.53125 276.65625L40.53125 285.23438Q42.40625 285.1875 43.5625 284.14062Q44.71875 283.09375 44.71875 281.48438Q44.71875 280.32812 44.25 279.53125Q43.78125 278.73438 43.0 278.14062L44.03125 276.8125Q46.484375 278.40625 46.484375 281.59375ZM35.109375 281.85938Q35.109375 283.17188 36.078125 284.0625Q37.03125 284.95312 38.75 285.17188L38.75 278.8125L38.578125 278.8125Q36.9375 278.90625 36.03125 279.70312Q35.109375 280.5 35.109375 281.85938ZM35.515625 267.73438Q35.4375 268.21875 35.4375 268.79688Q35.4375 270.92188 37.25 271.6875L46.25 271.6875L46.25 273.85938L33.5625 273.85938L33.5625 271.75L35.03125 271.71875Q33.328125 270.64062 33.328125 268.6875Q33.328125 268.0625 33.5 267.73438L35.515625 267.73438ZM44.71875 260.76562Q44.71875 259.60938 44.015625 258.75Q43.3125 257.875 42.25 257.78125L42.25 255.73438Q43.34375 255.79688 44.328125 256.48438Q45.3125 257.17188 45.90625 258.32812Q46.484375 259.48438 46.484375 260.76562Q46.484375 263.35938 44.765625 264.89062Q43.03125 266.42188 40.03125 266.42188L39.65625 266.42188Q37.8125 266.42188 36.375 265.75Q34.921875 265.0625 34.125 263.79688Q33.328125 262.51562 33.328125 260.78125Q33.328125 258.65625 34.609375 257.25Q35.890625 255.82812 37.921875 255.73438L37.921875 257.78125Q36.703125 257.875 35.90625 258.71875Q35.109375 259.54688 35.109375 260.78125Q35.109375 262.4375 36.3125 263.34375Q37.5 264.25 39.75 264.25L40.15625 264.25Q42.34375 264.25 43.53125 263.35938Q44.71875 262.45312 44.71875 260.76562ZM46.484375 247.59375Q46.484375 250.17188 44.796875 251.79688Q43.09375 253.40625 40.265625 253.40625L39.859375 253.40625Q37.96875 253.40625 36.5 252.6875Q35.015625 251.96875 34.171875 250.67188Q33.328125 249.375 33.328125 247.85938Q33.328125 245.39062 34.96875 244.03125Q36.59375 242.65625 39.625 242.65625L40.53125 242.65625L40.53125 251.23438Q42.40625 251.1875 43.5625 250.14062Q44.71875 249.09375 44.71875 247.48438Q44.71875 246.32812 44.25 245.53125Q43.78125 244.73438 43.0 244.14062L44.03125 242.8125Q46.484375 244.40625 46.484375 247.59375ZM35.109375 247.85938Q35.109375 249.17188 36.078125 250.0625Q37.03125 250.95312 38.75 251.17188L38.75 244.8125L38.578125 244.8125Q36.9375 244.90625 36.03125 245.70312Q35.109375 246.5 35.109375 247.85938ZM33.5625 237.8125L35.15625 237.73438Q33.328125 236.28125 33.328125 233.9375Q33.328125 229.92188 37.875 229.89062L46.25 229.89062L46.25 232.04688L37.859375 232.04688Q36.484375 232.0625 35.828125 232.6875Q35.171875 233.29688 35.171875 234.59375Q35.171875 235.65625 35.734375 236.45312Q36.296875 237.25 37.21875 237.6875L46.25 237.6875L46.25 239.85938L33.5625 239.85938L33.5625 237.8125ZM30.5 223.92188L33.5625 223.92188L33.5625 221.54688L35.25 221.54688L35.25 223.92188L43.109375 223.92188Q43.875 223.92188 44.25 223.60938Q44.625 223.28125 44.625 222.51562Q44.625 222.14062 44.484375 221.48438L46.25 221.48438Q46.484375 222.34375 46.484375 223.15625Q46.484375 224.60938 45.609375 225.34375Q44.71875 226.07812 43.109375 226.07812L35.25 226.07812L35.25 228.39062L33.5625 228.39062L33.5625 226.07812L30.5 226.07812L30.5 223.92188ZM46.25 211.03125Q45.875 211.21875 44.90625 211.32812Q46.484375 212.84375 46.484375 214.9375Q46.484375 216.8125 45.421875 218.01562Q44.359375 219.21875 42.734375 219.21875Q40.75 219.21875 39.65625 217.71875Q38.5625 216.20312 38.5625 213.48438L38.5625 211.375L37.5625 211.375Q36.421875 211.375 35.75 212.0625Q35.078125 212.73438 35.078125 214.04688Q35.078125 215.21875 35.671875 216.0Q36.25 216.78125 37.078125 216.78125L37.078125 218.96875Q36.140625 218.96875 35.25 218.29688Q34.359375 217.60938 33.84375 216.46875Q33.328125 215.3125 33.328125 213.92188Q33.328125 211.73438 34.4375 210.5Q35.53125 209.25 37.453125 209.20312L43.28125 209.20312Q45.03125 209.20312 46.0625 208.75L46.25 208.75L46.25 211.03125ZM44.59375 214.625Q44.59375 213.60938 44.078125 212.70312Q43.546875 211.78125 42.703125 211.375L40.09375 211.375L40.09375 213.0625Q40.09375 217.04688 42.421875 217.04688Q43.453125 217.04688 44.03125 216.375Q44.59375 215.6875 44.59375 214.625ZM39.796875 206.375Q36.84375 206.375 35.09375 205.0Q33.328125 203.625 33.328125 201.375Q33.328125 199.04688 34.96875 197.75L33.5625 197.64062L33.5625 195.65625L45.9375 195.65625Q48.40625 195.65625 49.828125 197.125Q51.25 198.57812 51.25 201.04688Q51.25 202.40625 50.65625 203.71875Q50.078125 205.03125 49.046875 205.73438L47.75 204.60938Q49.46875 203.20312 49.46875 201.1875Q49.46875 199.60938 48.578125 198.73438Q47.6875 197.84375 46.078125 197.84375L44.984375 197.84375Q46.484375 199.14062 46.484375 201.39062Q46.484375 203.625 44.6875 205.0Q42.890625 206.375 39.796875 206.375ZM40.046875 204.1875Q42.1875 204.1875 43.421875 203.3125Q44.640625 202.4375 44.640625 200.85938Q44.640625 198.79688 42.78125 197.84375L36.984375 197.84375Q35.171875 198.84375 35.171875 200.82812Q35.171875 202.40625 36.40625 203.29688Q37.640625 204.1875 40.046875 204.1875ZM46.484375 187.59375Q46.484375 190.17188 44.796875 191.79688Q43.09375 193.40625 40.265625 193.40625L39.859375 193.40625Q37.96875 193.40625 36.5 192.6875Q35.015625 191.96875 34.171875 190.67188Q33.328125 189.375 33.328125 187.85938Q33.328125 185.39062 34.96875 184.03125Q36.59375 182.65625 39.625 182.65625L40.53125 182.65625L40.53125 191.23438Q42.40625 191.1875 43.5625 190.14062Q44.71875 189.09375 44.71875 187.48438Q44.71875 186.32812 44.25 185.53125Q43.78125 184.73438 43.0 184.14062L44.03125 182.8125Q46.484375 184.40625 46.484375 187.59375ZM35.109375 187.85938Q35.109375 189.17188 36.078125 190.0625Q37.03125 190.95312 38.75 191.17188L38.75 184.8125L38.578125 184.8125Q36.9375 184.90625 36.03125 185.70312Q35.109375 186.5 35.109375 187.85938ZM39.796875 174.4375Q37.921875 174.4375 36.4375 173.70312Q34.953125 172.96875 34.140625 171.67188Q33.328125 170.35938 33.328125 168.67188Q33.328125 166.09375 35.125 164.5Q36.921875 162.89062 39.890625 162.89062L40.046875 162.89062Q41.90625 162.89062 43.375 163.60938Q44.84375 164.3125 45.671875 165.625Q46.484375 166.9375 46.484375 168.65625Q46.484375 171.23438 44.6875 172.84375Q42.890625 174.4375 39.9375 174.4375L39.796875 174.4375ZM40.046875 172.25Q42.15625 172.25 43.4375 171.28125Q44.71875 170.29688 44.71875 168.65625Q44.71875 167.0 43.421875 166.03125Q42.125 165.0625 39.796875 165.0625Q37.703125 165.0625 36.40625 166.04688Q35.109375 167.03125 35.109375 168.67188Q35.109375 170.28125 36.390625 171.26562Q37.671875 172.25 40.046875 172.25ZM46.25 158.79688L35.25 158.79688L35.25 160.79688L33.5625 160.79688L33.5625 158.79688L32.265625 158.79688Q30.234375 158.79688 29.125 157.70312Q28.0 156.60938 28.0 154.625Q28.0 153.875 28.203125 153.125L29.953125 153.25Q29.859375 153.79688 29.859375 154.42188Q29.859375 155.46875 30.46875 156.04688Q31.078125 156.625 32.234375 156.625L33.5625 156.625L33.5625 153.92188L35.25 153.92188L35.25 156.625L46.25 156.625L46.25 158.79688ZM42.890625 138.46875Q42.0 138.46875 41.515625 139.14062Q41.03125 139.79688 40.6875 141.45312Q40.328125 143.09375 39.84375 144.0625Q39.34375 145.03125 38.671875 145.5Q37.984375 145.95312 37.046875 145.95312Q35.484375 145.95312 34.40625 144.64062Q33.328125 143.3125 33.328125 141.26562Q33.328125 139.10938 34.453125 137.76562Q35.5625 136.42188 37.296875 136.42188L37.296875 138.60938Q36.40625 138.60938 35.765625 139.35938Q35.109375 140.10938 35.109375 141.26562Q35.109375 142.45312 35.625 143.125Q36.140625 143.78125 36.984375 143.78125Q37.765625 143.78125 38.171875 143.17188Q38.5625 142.54688 38.921875 140.92188Q39.28125 139.29688 39.796875 138.29688Q40.296875 137.28125 41.015625 136.79688Q41.71875 136.3125 42.734375 136.3125Q44.4375 136.3125 45.46875 137.67188Q46.484375 139.03125 46.484375 141.1875Q46.484375 142.71875 45.953125 143.89062Q45.40625 145.0625 44.4375 145.73438Q43.46875 146.39062 42.34375 146.39062L42.34375 144.21875Q43.4375 144.15625 44.078125 143.34375Q44.71875 142.53125 44.71875 141.1875Q44.71875 139.96875 44.21875 139.21875Q43.71875 138.46875 42.890625 138.46875ZM46.25 131.5L46.25 133.67188L33.5625 133.67188L33.5625 131.5L46.25 131.5ZM30.203125 133.84375Q29.671875 133.84375 29.3125 133.53125Q28.953125 133.20312 28.953125 132.57812Q28.953125 131.9375 29.3125 131.60938Q29.671875 131.28125 30.203125 131.28125Q30.734375 131.28125 31.09375 131.60938Q31.4375 131.9375 31.4375 132.57812Q31.4375 133.20312 31.09375 133.53125Q30.734375 133.84375 30.203125 133.84375ZM30.5 124.921875L33.5625 124.921875L33.5625 122.546875L35.25 122.546875L35.25 124.921875L43.109375 124.921875Q43.875 124.921875 44.25 124.609375Q44.625 124.28125 44.625 123.515625Q44.625 123.140625 44.484375 122.484375L46.25 122.484375Q46.484375 123.34375 46.484375 124.15625Q46.484375 125.609375 45.609375 126.34375Q44.71875 127.078125 43.109375 127.078125L35.25 127.078125L35.25 129.39062L33.5625 129.39062L33.5625 127.078125L30.5 127.078125L30.5 124.921875ZM46.484375 114.59375Q46.484375 117.171875 44.796875 118.796875Q43.09375 120.40625 40.265625 120.40625L39.859375 120.40625Q37.96875 120.40625 36.5 119.6875Q35.015625 118.96875 34.171875 117.671875Q33.328125 116.375 33.328125 114.859375Q33.328125 112.390625 34.96875 111.03125Q36.59375 109.65625 39.625 109.65625L40.53125 109.65625L40.53125 118.234375Q42.40625 118.1875 43.5625 117.140625Q44.71875 116.09375 44.71875 114.484375Q44.71875 113.328125 44.25 112.53125Q43.78125 111.734375 43.0 111.140625L44.03125 109.8125Q46.484375 111.40625 46.484375 114.59375ZM35.109375 114.859375Q35.109375 116.171875 36.078125 117.0625Q37.03125 117.953125 38.75 118.171875L38.75 111.8125L38.578125 111.8125Q36.9375 111.90625 36.03125 112.703125Q35.109375 113.5 35.109375 114.859375ZM42.890625 99.46875Q42.0 99.46875 41.515625 100.140625Q41.03125 100.796875 40.6875 102.453125Q40.328125 104.09375 39.84375 105.0625Q39.34375 106.03125 38.671875 106.5Q37.984375 106.953125 37.046875 106.953125Q35.484375 106.953125 34.40625 105.640625Q33.328125 104.3125 33.328125 102.265625Q33.328125 100.109375 34.453125 98.765625Q35.5625 97.421875 37.296875 97.421875L37.296875 99.609375Q36.40625 99.609375 35.765625 100.359375Q35.109375 101.109375 35.109375 102.265625Q35.109375 103.453125 35.625 104.125Q36.140625 104.78125 36.984375 104.78125Q37.765625 104.78125 38.171875 104.171875Q38.5625 103.546875 38.921875 101.921875Q39.28125 100.296875 39.796875 99.296875Q40.296875 98.28125 41.015625 97.796875Q41.71875 97.3125 42.734375 97.3125Q44.4375 97.3125 45.46875 98.671875Q46.484375 100.03125 46.484375 102.1875Q46.484375 103.71875 45.953125 104.890625Q45.40625 106.0625 44.4375 106.734375Q43.46875 107.390625 42.34375 107.390625L42.34375 105.21875Q43.4375 105.15625 44.078125 104.34375Q44.71875 103.53125 44.71875 102.1875Q44.71875 100.96875 44.21875 100.21875Q43.71875 99.46875 42.890625 99.46875Z" fill-rule="nonzero"/><path fill="#757575" d="M114.328125 350.39062Q114.328125 352.9375 113.453125 354.17188Q112.59375 355.40625 110.75 355.40625Q108.9375 355.40625 108.0625 354.20312Q107.1875 352.98438 107.15625 350.59375L107.15625 348.65625Q107.15625 346.15625 108.015625 344.9375Q108.890625 343.71875 110.734375 343.71875Q112.578125 343.71875 113.4375 344.89062Q114.3125 346.0625 114.328125 348.51562L114.328125 350.39062ZM112.890625 348.42188Q112.890625 346.57812 112.375 345.75Q111.859375 344.90625 110.734375 344.90625Q109.625 344.90625 109.109375 345.75Q108.609375 346.57812 108.59375 348.3125L108.59375 350.625Q108.59375 352.46875 109.125 353.34375Q109.671875 354.21875 110.75 354.21875Q111.828125 354.21875 112.34375 353.39062Q112.859375 352.5625 112.890625 350.78125L112.890625 348.42188ZM116.375 354.48438Q116.375 354.10938 116.59375 353.85938Q116.828125 353.60938 117.265625 353.60938Q117.71875 353.60938 117.9375 353.85938Q118.171875 354.10938 118.171875 354.48438Q118.171875 354.84375 117.9375 355.09375Q117.71875 355.34375 117.265625 355.34375Q116.828125 355.34375 116.59375 355.09375Q116.375 354.84375 116.375 354.48438ZM127.328125 350.39062Q127.328125 352.9375 126.453125 354.17188Q125.59375 355.40625 123.75 355.40625Q121.9375 355.40625 121.0625 354.20312Q120.1875 352.98438 120.15625 350.59375L120.15625 348.65625Q120.15625 346.15625 121.015625 344.9375Q121.890625 343.71875 123.734375 343.71875Q125.578125 343.71875 126.4375 344.89062Q127.3125 346.0625 127.328125 348.51562L127.328125 350.39062ZM125.890625 348.42188Q125.890625 346.57812 125.375 345.75Q124.859375 344.90625 123.734375 344.90625Q122.625 344.90625 122.109375 345.75Q121.609375 346.57812 121.59375 348.3125L121.59375 350.625Q121.59375 352.46875 122.125 353.34375Q122.671875 354.21875 123.75 354.21875Q124.828125 354.21875 125.34375 353.39062Q125.859375 352.5625 125.890625 350.78125L125.890625 348.42188ZM129.07812 346.0625Q129.07812 345.03125 129.71875 344.375Q130.375 343.70312 131.40625 343.70312Q132.4375 343.70312 133.07812 344.375Q133.73438 345.04688 133.73438 346.10938L133.73438 346.65625Q133.73438 347.6875 133.07812 348.34375Q132.42188 349.0 131.42188 349.0Q130.40625 349.0 129.73438 348.34375Q129.07812 347.6875 129.07812 346.60938L129.07812 346.0625ZM130.15625 346.65625Q130.15625 347.26562 130.5 347.67188Q130.84375 348.0625 131.42188 348.0625Q131.96875 348.0625 132.3125 347.6875Q132.65625 347.29688 132.65625 346.625L132.65625 346.0625Q132.65625 345.45312 132.3125 345.0625Q131.98438 344.65625 131.40625 344.65625Q130.82812 344.65625 130.48438 345.0625Q130.15625 345.45312 130.15625 346.09375L130.15625 346.65625ZM134.60938 352.45312Q134.60938 351.4375 135.26562 350.78125Q135.92188 350.10938 136.9375 350.10938Q137.96875 350.10938 138.625 350.76562Q139.28125 351.42188 139.28125 352.51562L139.28125 353.0625Q139.28125 354.09375 138.625 354.76562Q137.96875 355.42188 136.95312 355.42188Q135.9375 355.42188 135.26562 354.76562Q134.60938 354.10938 134.60938 353.01562L134.60938 352.45312ZM135.6875 353.0625Q135.6875 353.6875 136.03125 354.07812Q136.375 354.46875 136.95312 354.46875Q137.51562 354.46875 137.84375 354.09375Q138.1875 353.70312 138.1875 353.03125L138.1875 352.45312Q138.1875 351.84375 137.84375 351.45312Q137.51562 351.0625 136.9375 351.0625Q136.39062 351.0625 136.03125 351.45312Q135.6875 351.82812 135.6875 352.48438L135.6875 353.0625ZM131.75 354.39062L130.92188 353.875L136.48438 344.98438L137.29688 345.5L131.75 354.39062Z" fill-rule="nonzero"/><path fill="#757575" d="M105.65625 276.0L98.203125 276.0L98.203125 274.95312L102.140625 270.57812Q103.015625 269.59375 103.34375 268.96875Q103.671875 268.34375 103.671875 267.6875Q103.671875 266.79688 103.125 266.23438Q102.59375 265.65625 101.703125 265.65625Q100.625 265.65625 100.015625 266.26562Q99.421875 266.875 99.421875 267.96875L97.984375 267.96875Q97.984375 266.40625 98.984375 265.4375Q100.0 264.46875 101.703125 264.46875Q103.28125 264.46875 104.203125 265.29688Q105.125 266.125 105.125 267.51562Q105.125 269.1875 102.984375 271.51562L99.9375 274.8125L105.65625 274.8125L105.65625 276.0ZM107.859375 270.29688L108.4375 264.625L114.265625 264.625L114.265625 265.95312L109.671875 265.95312L109.328125 269.0625Q110.15625 268.5625 111.21875 268.5625Q112.78125 268.5625 113.6875 269.59375Q114.609375 270.625 114.609375 272.375Q114.609375 274.125 113.65625 275.14062Q112.703125 276.15625 111.0 276.15625Q109.5 276.15625 108.546875 275.32812Q107.59375 274.48438 107.453125 273.0L108.828125 273.0Q108.953125 273.98438 109.515625 274.48438Q110.078125 274.96875 111.0 274.96875Q112.015625 274.96875 112.578125 274.28125Q113.15625 273.59375 113.15625 272.39062Q113.15625 271.25 112.53125 270.5625Q111.921875 269.85938 110.890625 269.85938Q109.9375 269.85938 109.40625 270.28125L109.015625 270.59375L107.859375 270.29688ZM116.375 275.23438Q116.375 274.85938 116.59375 274.60938Q116.828125 274.35938 117.265625 274.35938Q117.71875 274.35938 117.9375 274.60938Q118.171875 274.85938 118.171875 275.23438Q118.171875 275.59375 117.9375 275.84375Q117.71875 276.09375 117.265625 276.09375Q116.828125 276.09375 116.59375 275.84375Q116.375 275.59375 116.375 275.23438ZM127.328125 271.14062Q127.328125 273.6875 126.453125 274.92188Q125.59375 276.15625 123.75 276.15625Q121.9375 276.15625 121.0625 274.95312Q120.1875 273.73438 120.15625 271.34375L120.15625 269.40625Q120.15625 266.90625 121.015625 265.6875Q121.890625 264.46875 123.734375 264.46875Q125.578125 264.46875 126.4375 265.64062Q127.3125 266.8125 127.328125 269.26562L127.328125 271.14062ZM125.890625 269.17188Q125.890625 267.32812 125.375 266.5Q124.859375 265.65625 123.734375 265.65625Q122.625 265.65625 122.109375 266.5Q121.609375 267.32812 121.59375 269.0625L121.59375 271.375Q121.59375 273.21875 122.125 274.09375Q122.671875 274.96875 123.75 274.96875Q124.828125 274.96875 125.34375 274.14062Q125.859375 273.3125 125.890625 271.53125L125.890625 269.17188ZM129.07812 266.8125Q129.07812 265.78125 129.71875 265.125Q130.375 264.45312 131.40625 264.45312Q132.4375 264.45312 133.07812 265.125Q133.73438 265.79688 133.73438 266.85938L133.73438 267.40625Q133.73438 268.4375 133.07812 269.09375Q132.42188 269.75 131.42188 269.75Q130.40625 269.75 129.73438 269.09375Q129.07812 268.4375 129.07812 267.35938L129.07812 266.8125ZM130.15625 267.40625Q130.15625 268.01562 130.5 268.42188Q130.84375 268.8125 131.42188 268.8125Q131.96875 268.8125 132.3125 268.4375Q132.65625 268.04688 132.65625 267.375L132.65625 266.8125Q132.65625 266.20312 132.3125 265.8125Q131.98438 265.40625 131.40625 265.40625Q130.82812 265.40625 130.48438 265.8125Q130.15625 266.20312 130.15625 266.84375L130.15625 267.40625ZM134.60938 273.20312Q134.60938 272.1875 135.26562 271.53125Q135.92188 270.85938 136.9375 270.85938Q137.96875 270.85938 138.625 271.51562Q139.28125 272.17188 139.28125 273.26562L139.28125 273.8125Q139.28125 274.84375 138.625 275.51562Q137.96875 276.17188 136.95312 276.17188Q135.9375 276.17188 135.26562 275.51562Q134.60938 274.85938 134.60938 273.76562L134.60938 273.20312ZM135.6875 273.8125Q135.6875 274.4375 136.03125 274.82812Q136.375 275.21875 136.95312 275.21875Q137.51562 275.21875 137.84375 274.84375Q138.1875 274.45312 138.1875 273.78125L138.1875 273.20312Q138.1875 272.59375 137.84375 272.20312Q137.51562 271.8125 136.9375 271.8125Q136.39062 271.8125 136.03125 272.20312Q135.6875 272.57812 135.6875 273.23438L135.6875 273.8125ZM131.75 275.14062L130.92188 274.625L136.48438 265.73438L137.29688 266.25L131.75 275.14062Z" fill-rule="nonzero"/><path fill="#757575" d="M98.859375 191.04688L99.4375 185.375L105.265625 185.375L105.265625 186.70312L100.671875 186.70312L100.328125 189.8125Q101.15625 189.3125 102.21875 189.3125Q103.78125 189.3125 104.6875 190.34375Q105.609375 191.375 105.609375 193.125Q105.609375 194.875 104.65625 195.89062Q103.703125 196.90625 102.0 196.90625Q100.5 196.90625 99.546875 196.07812Q98.59375 195.23438 98.453125 193.75L99.828125 193.75Q99.953125 194.73438 100.515625 195.23438Q101.078125 195.71875 102.0 195.71875Q103.015625 195.71875 103.578125 195.03125Q104.15625 194.34375 104.15625 193.14062Q104.15625 192.0 103.53125 191.3125Q102.921875 190.60938 101.890625 190.60938Q100.9375 190.60938 100.40625 191.03125L100.015625 191.34375L98.859375 191.04688ZM114.328125 191.89062Q114.328125 194.4375 113.453125 195.67188Q112.59375 196.90625 110.75 196.90625Q108.9375 196.90625 108.0625 195.70312Q107.1875 194.48438 107.15625 192.09375L107.15625 190.15625Q107.15625 187.65625 108.015625 186.4375Q108.890625 185.21875 110.734375 185.21875Q112.578125 185.21875 113.4375 186.39062Q114.3125 187.5625 114.328125 190.01562L114.328125 191.89062ZM112.890625 189.92188Q112.890625 188.07812 112.375 187.25Q111.859375 186.40625 110.734375 186.40625Q109.625 186.40625 109.109375 187.25Q108.609375 188.07812 108.59375 189.8125L108.59375 192.125Q108.59375 193.96875 109.125 194.84375Q109.671875 195.71875 110.75 195.71875Q111.828125 195.71875 112.34375 194.89062Q112.859375 194.0625 112.890625 192.28125L112.890625 189.92188ZM116.375 195.98438Q116.375 195.60938 116.59375 195.35938Q116.828125 195.10938 117.265625 195.10938Q117.71875 195.10938 117.9375 195.35938Q118.171875 195.60938 118.171875 195.98438Q118.171875 196.34375 117.9375 196.59375Q117.71875 196.84375 117.265625 196.84375Q116.828125 196.84375 116.59375 196.59375Q116.375 196.34375 116.375 195.98438ZM127.328125 191.89062Q127.328125 194.4375 126.453125 195.67188Q125.59375 196.90625 123.75 196.90625Q121.9375 196.90625 121.0625 195.70312Q120.1875 194.48438 120.15625 192.09375L120.15625 190.15625Q120.15625 187.65625 121.015625 186.4375Q121.890625 185.21875 123.734375 185.21875Q125.578125 185.21875 126.4375 186.39062Q127.3125 187.5625 127.328125 190.01562L127.328125 191.89062ZM125.890625 189.92188Q125.890625 188.07812 125.375 187.25Q124.859375 186.40625 123.734375 186.40625Q122.625 186.40625 122.109375 187.25Q121.609375 188.07812 121.59375 189.8125L121.59375 192.125Q121.59375 193.96875 122.125 194.84375Q122.671875 195.71875 123.75 195.71875Q124.828125 195.71875 125.34375 194.89062Q125.859375 194.0625 125.890625 192.28125L125.890625 189.92188ZM129.07812 187.5625Q129.07812 186.53125 129.71875 185.875Q130.375 185.20312 131.40625 185.20312Q132.4375 185.20312 133.07812 185.875Q133.73438 186.54688 133.73438 187.60938L133.73438 188.15625Q133.73438 189.1875 133.07812 189.84375Q132.42188 190.5 131.42188 190.5Q130.40625 190.5 129.73438 189.84375Q129.07812 189.1875 129.07812 188.10938L129.07812 187.5625ZM130.15625 188.15625Q130.15625 188.76562 130.5 189.17188Q130.84375 189.5625 131.42188 189.5625Q131.96875 189.5625 132.3125 189.1875Q132.65625 188.79688 132.65625 188.125L132.65625 187.5625Q132.65625 186.95312 132.3125 186.5625Q131.98438 186.15625 131.40625 186.15625Q130.82812 186.15625 130.48438 186.5625Q130.15625 186.95312 130.15625 187.59375L130.15625 188.15625ZM134.60938 193.95312Q134.60938 192.9375 135.26562 192.28125Q135.92188 191.60938 136.9375 191.60938Q137.96875 191.60938 138.625 192.26562Q139.28125 192.92188 139.28125 194.01562L139.28125 194.5625Q139.28125 195.59375 138.625 196.26562Q137.96875 196.92188 136.95312 196.92188Q135.9375 196.92188 135.26562 196.26562Q134.60938 195.60938 134.60938 194.51562L134.60938 193.95312ZM135.6875 194.5625Q135.6875 195.1875 136.03125 195.57812Q136.375 195.96875 136.95312 195.96875Q137.51562 195.96875 137.84375 195.59375Q138.1875 195.20312 138.1875 194.53125L138.1875 193.95312Q138.1875 193.34375 137.84375 192.95312Q137.51562 192.5625 136.9375 192.5625Q136.39062 192.5625 136.03125 192.95312Q135.6875 193.32812 135.6875 193.98438L135.6875 194.5625ZM131.75 195.89062L130.92188 195.375L136.48438 186.48438L137.29688 187.0L131.75 195.89062Z" fill-rule="nonzero"/><path fill="#757575" d="M105.546875 106.9375L100.828125 117.5L99.3125 117.5L104.015625 107.3125L97.859375 107.3125L97.859375 106.125L105.546875 106.125L105.546875 106.9375ZM107.859375 111.796875L108.4375 106.125L114.265625 106.125L114.265625 107.453125L109.671875 107.453125L109.328125 110.5625Q110.15625 110.0625 111.21875 110.0625Q112.78125 110.0625 113.6875 111.09375Q114.609375 112.125 114.609375 113.875Q114.609375 115.625 113.65625 116.640625Q112.703125 117.65625 111.0 117.65625Q109.5 117.65625 108.546875 116.828125Q107.59375 115.984375 107.453125 114.5L108.828125 114.5Q108.953125 115.484375 109.515625 115.984375Q110.078125 116.46875 111.0 116.46875Q112.015625 116.46875 112.578125 115.78125Q113.15625 115.09375 113.15625 113.890625Q113.15625 112.75 112.53125 112.0625Q111.921875 111.359375 110.890625 111.359375Q109.9375 111.359375 109.40625 111.78125L109.015625 112.09375L107.859375 111.796875ZM116.375 116.734375Q116.375 116.359375 116.59375 116.109375Q116.828125 115.859375 117.265625 115.859375Q117.71875 115.859375 117.9375 116.109375Q118.171875 116.359375 118.171875 116.734375Q118.171875 117.09375 117.9375 117.34375Q117.71875 117.59375 117.265625 117.59375Q116.828125 117.59375 116.59375 117.34375Q116.375 117.09375 116.375 116.734375ZM127.328125 112.640625Q127.328125 115.1875 126.453125 116.421875Q125.59375 117.65625 123.75 117.65625Q121.9375 117.65625 121.0625 116.453125Q120.1875 115.234375 120.15625 112.84375L120.15625 110.90625Q120.15625 108.40625 121.015625 107.1875Q121.890625 105.96875 123.734375 105.96875Q125.578125 105.96875 126.4375 107.140625Q127.3125 108.3125 127.328125 110.765625L127.328125 112.640625ZM125.890625 110.671875Q125.890625 108.828125 125.375 108.0Q124.859375 107.15625 123.734375 107.15625Q122.625 107.15625 122.109375 108.0Q121.609375 108.828125 121.59375 110.5625L121.59375 112.875Q121.59375 114.71875 122.125 115.59375Q122.671875 116.46875 123.75 116.46875Q124.828125 116.46875 125.34375 115.640625Q125.859375 114.8125 125.890625 113.03125L125.890625 110.671875ZM129.07812 108.3125Q129.07812 107.28125 129.71875 106.625Q130.375 105.953125 131.40625 105.953125Q132.4375 105.953125 133.07812 106.625Q133.73438 107.296875 133.73438 108.359375L133.73438 108.90625Q133.73438 109.9375 133.07812 110.59375Q132.42188 111.25 131.42188 111.25Q130.40625 111.25 129.73438 110.59375Q129.07812 109.9375 129.07812 108.859375L129.07812 108.3125ZM130.15625 108.90625Q130.15625 109.515625 130.5 109.921875Q130.84375 110.3125 131.42188 110.3125Q131.96875 110.3125 132.3125 109.9375Q132.65625 109.546875 132.65625 108.875L132.65625 108.3125Q132.65625 107.703125 132.3125 107.3125Q131.98438 106.90625 131.40625 106.90625Q130.82812 106.90625 130.48438 107.3125Q130.15625 107.703125 130.15625 108.34375L130.15625 108.90625ZM134.60938 114.703125Q134.60938 113.6875 135.26562 113.03125Q135.92188 112.359375 136.9375 112.359375Q137.96875 112.359375 138.625 113.015625Q139.28125 113.671875 139.28125 114.765625L139.28125 115.3125Q139.28125 116.34375 138.625 117.015625Q137.96875 117.671875 136.95312 117.671875Q135.9375 117.671875 135.26562 117.015625Q134.60938 116.359375 134.60938 115.265625L134.60938 114.703125ZM135.6875 115.3125Q135.6875 115.9375 136.03125 116.328125Q136.375 116.71875 136.95312 116.71875Q137.51562 116.71875 137.84375 116.34375Q138.1875 115.953125 138.1875 115.28125L138.1875 114.703125Q138.1875 114.09375 137.84375 113.703125Q137.51562 113.3125 136.9375 113.3125Q136.39062 113.3125 136.03125 113.703125Q135.6875 114.078125 135.6875 114.734375L135.6875 115.3125ZM131.75 116.640625L130.92188 116.125L136.48438 107.234375L137.29688 107.75L131.75 116.640625Z" fill-rule="nonzero"/><path fill="#757575" d="M93.953125 38.25L92.5 38.25L92.5 28.609375L89.578125 29.6875L89.578125 28.375L93.71875 26.8125L93.953125 26.8125L93.953125 38.25ZM105.328125 33.390625Q105.328125 35.9375 104.453125 37.171875Q103.59375 38.40625 101.75 38.40625Q99.9375 38.40625 99.0625 37.203125Q98.1875 35.984375 98.15625 33.59375L98.15625 31.65625Q98.15625 29.15625 99.015625 27.9375Q99.890625 26.71875 101.734375 26.71875Q103.578125 26.71875 104.4375 27.890625Q105.3125 29.0625 105.328125 31.515625L105.328125 33.390625ZM103.890625 31.421875Q103.890625 29.578125 103.375 28.75Q102.859375 27.90625 101.734375 27.90625Q100.625 27.90625 100.109375 28.75Q99.609375 29.578125 99.59375 31.3125L99.59375 33.625Q99.59375 35.46875 100.125 36.34375Q100.671875 37.21875 101.75 37.21875Q102.828125 37.21875 103.34375 36.390625Q103.859375 35.5625 103.890625 33.78125L103.890625 31.421875ZM114.328125 33.390625Q114.328125 35.9375 113.453125 37.171875Q112.59375 38.40625 110.75 38.40625Q108.9375 38.40625 108.0625 37.203125Q107.1875 35.984375 107.15625 33.59375L107.15625 31.65625Q107.15625 29.15625 108.015625 27.9375Q108.890625 26.71875 110.734375 26.71875Q112.578125 26.71875 113.4375 27.890625Q114.3125 29.0625 114.328125 31.515625L114.328125 33.390625ZM112.890625 31.421875Q112.890625 29.578125 112.375 28.75Q111.859375 27.90625 110.734375 27.90625Q109.625 27.90625 109.109375 28.75Q108.609375 29.578125 108.59375 31.3125L108.59375 33.625Q108.59375 35.46875 109.125 36.34375Q109.671875 37.21875 110.75 37.21875Q111.828125 37.21875 112.34375 36.390625Q112.859375 35.5625 112.890625 33.78125L112.890625 31.421875ZM116.375 37.484375Q116.375 37.109375 116.59375 36.859375Q116.828125 36.609375 117.265625 36.609375Q117.71875 36.609375 117.9375 36.859375Q118.171875 37.109375 118.171875 37.484375Q118.171875 37.84375 117.9375 38.09375Q117.71875 38.34375 117.265625 38.34375Q116.828125 38.34375 116.59375 38.09375Q116.375 37.84375 116.375 37.484375ZM127.328125 33.390625Q127.328125 35.9375 126.453125 37.171875Q125.59375 38.40625 123.75 38.40625Q121.9375 38.40625 121.0625 37.203125Q120.1875 35.984375 120.15625 33.59375L120.15625 31.65625Q120.15625 29.15625 121.015625 27.9375Q121.890625 26.71875 123.734375 26.71875Q125.578125 26.71875 126.4375 27.890625Q127.3125 29.0625 127.328125 31.515625L127.328125 33.390625ZM125.890625 31.421875Q125.890625 29.578125 125.375 28.75Q124.859375 27.90625 123.734375 27.90625Q122.625 27.90625 122.109375 28.75Q121.609375 29.578125 121.59375 31.3125L121.59375 33.625Q121.59375 35.46875 122.125 36.34375Q122.671875 37.21875 123.75 37.21875Q124.828125 37.21875 125.34375 36.390625Q125.859375 35.5625 125.890625 33.78125L125.890625 31.421875ZM129.07812 29.0625Q129.07812 28.03125 129.71875 27.375Q130.375 26.703125 131.40625 26.703125Q132.4375 26.703125 133.07812 27.375Q133.73438 28.046875 133.73438 29.109375L133.73438 29.65625Q133.73438 30.6875 133.07812 31.34375Q132.42188 32.0 131.42188 32.0Q130.40625 32.0 129.73438 31.34375Q129.07812 30.6875 129.07812 29.609375L129.07812 29.0625ZM130.15625 29.65625Q130.15625 30.265625 130.5 30.671875Q130.84375 31.0625 131.42188 31.0625Q131.96875 31.0625 132.3125 30.6875Q132.65625 30.296875 132.65625 29.625L132.65625 29.0625Q132.65625 28.453125 132.3125 28.0625Q131.98438 27.65625 131.40625 27.65625Q130.82812 27.65625 130.48438 28.0625Q130.15625 28.453125 130.15625 29.09375L130.15625 29.65625ZM134.60938 35.453125Q134.60938 34.4375 135.26562 33.78125Q135.92188 33.109375 136.9375 33.109375Q137.96875 33.109375 138.625 33.765625Q139.28125 34.421875 139.28125 35.515625L139.28125 36.0625Q139.28125 37.09375 138.625 37.765625Q137.96875 38.421875 136.95312 38.421875Q135.9375 38.421875 135.26562 37.765625Q134.60938 37.109375 134.60938 36.015625L134.60938 35.453125ZM135.6875 36.0625Q135.6875 36.6875 136.03125 37.078125Q136.375 37.46875 136.95312 37.46875Q137.51562 37.46875 137.84375 37.09375Q138.1875 36.703125 138.1875 36.03125L138.1875 35.453125Q138.1875 34.84375 137.84375 34.453125Q137.51562 34.0625 136.9375 34.0625Q136.39062 34.0625 136.03125 34.453125Q135.6875 34.828125 135.6875 35.484375L135.6875 36.0625ZM131.75 37.390625L130.92188 36.875L136.48438 27.984375L137.29688 28.5L131.75 37.390625Z" fill-rule="nonzero"/><path fill="#757575" d="M287.31747 372.75L287.31747 361.375L290.5206 361.375Q292.00497 361.375 293.1456 362.03125Q294.28622 362.6875 294.91122 363.90625Q295.53622 365.10938 295.53622 366.67188L295.53622 367.40625Q295.53622 369.01562 294.91122 370.23438Q294.30185 371.4375 293.1456 372.09375Q291.98935 372.73438 290.4581 372.75L287.31747 372.75ZM288.81747 362.60938L288.81747 371.51562L290.3956 371.51562Q292.12997 371.51562 293.0831 370.4375Q294.05185 369.35938 294.05185 367.375L294.05185 366.70312Q294.05185 364.76562 293.1456 363.70312Q292.23935 362.625 290.56747 362.60938L288.81747 362.60938ZM301.59872 372.90625Q299.87997 372.90625 298.80185 371.78125Q297.72372 370.64062 297.72372 368.75L297.72372 368.48438Q297.72372 367.23438 298.19247 366.25Q298.67685 365.25 299.53622 364.70312Q300.41122 364.14062 301.41122 364.14062Q303.06747 364.14062 303.97372 365.23438Q304.8956 366.3125 304.8956 368.32812L304.8956 368.9375L299.16122 368.9375Q299.19247 370.1875 299.8956 370.95312Q300.59872 371.71875 301.67685 371.71875Q302.44247 371.71875 302.97372 371.40625Q303.50497 371.09375 303.8956 370.57812L304.78622 371.26562Q303.72372 372.90625 301.59872 372.90625ZM301.41122 365.32812Q300.53622 365.32812 299.94247 365.96875Q299.34872 366.59375 299.2081 367.75L303.44247 367.75L303.44247 367.64062Q303.37997 366.53125 302.84872 365.9375Q302.31747 365.32812 301.41122 365.32812ZM311.00497 370.5Q311.00497 369.92188 310.56747 369.59375Q310.12997 369.26562 309.0206 369.03125Q307.92685 368.79688 307.28622 368.46875Q306.6456 368.14062 306.3331 367.6875Q306.0206 367.23438 306.0206 366.60938Q306.0206 365.57812 306.8956 364.85938Q307.78622 364.14062 309.1456 364.14062Q310.5831 364.14062 311.47372 364.89062Q312.37997 365.625 312.37997 366.78125L310.92685 366.78125Q310.92685 366.1875 310.41122 365.76562Q309.91122 365.32812 309.1456 365.32812Q308.36435 365.32812 307.91122 365.67188Q307.47372 366.01562 307.47372 366.5625Q307.47372 367.09375 307.87997 367.35938Q308.30185 367.625 309.37997 367.875Q310.4581 368.10938 311.12997 368.45312Q311.80185 368.78125 312.12997 369.25Q312.4581 369.71875 312.4581 370.40625Q312.4581 371.53125 311.55185 372.21875Q310.6456 372.90625 309.19247 372.90625Q308.17685 372.90625 307.3956 372.54688Q306.61435 372.1875 306.17685 371.54688Q305.73935 370.89062 305.73935 370.14062L307.17685 370.14062Q307.22372 370.875 307.75497 371.29688Q308.30185 371.71875 309.19247 371.71875Q310.0206 371.71875 310.50497 371.39062Q311.00497 371.0625 311.00497 370.5ZM316.44247 368.82812L315.53622 369.78125L315.53622 372.75L314.09872 372.75L314.09872 360.75L315.53622 360.75L315.53622 368.0L316.31747 367.07812L318.94247 364.29688L320.7081 364.29688L317.41122 367.82812L321.0831 372.75L319.3956 372.75L316.44247 368.82812ZM324.05185 362.25L324.05185 364.29688L325.62997 364.29688L325.62997 365.40625L324.05185 365.40625L324.05185 370.65625Q324.05185 371.15625 324.25497 371.42188Q324.47372 371.67188 324.97372 371.67188Q325.22372 371.67188 325.66122 371.57812L325.66122 372.75Q325.09872 372.90625 324.55185 372.90625Q323.5831 372.90625 323.0831 372.32812Q322.59872 371.73438 322.59872 370.65625L322.59872 365.40625L321.06747 365.40625L321.06747 364.29688L322.59872 364.29688L322.59872 362.25L324.05185 362.25ZM326.7081 368.4375Q326.7081 367.20312 327.19247 366.21875Q327.67685 365.21875 328.55185 364.6875Q329.42685 364.14062 330.53622 364.14062Q332.2706 364.14062 333.3331 365.34375Q334.3956 366.53125 334.3956 368.51562L334.3956 368.60938Q334.3956 369.84375 333.92685 370.82812Q333.4581 371.8125 332.56747 372.35938Q331.69247 372.90625 330.55185 372.90625Q328.8331 372.90625 327.7706 371.71875Q326.7081 370.51562 326.7081 368.54688L326.7081 368.4375ZM328.16122 368.60938Q328.16122 370.01562 328.80185 370.875Q329.4581 371.71875 330.55185 371.71875Q331.66122 371.71875 332.30185 370.85938Q332.9581 370.0 332.9581 368.4375Q332.9581 367.04688 332.28622 366.1875Q331.62997 365.32812 330.53622 365.32812Q329.47372 365.32812 328.81747 366.1875Q328.16122 367.03125 328.16122 368.60938ZM343.22372 368.60938Q343.22372 370.54688 342.3331 371.73438Q341.4581 372.90625 339.9581 372.90625Q338.41122 372.90625 337.53622 371.92188L337.53622 376.0L336.0831 376.0L336.0831 364.29688L337.41122 364.29688L337.47372 365.23438Q338.36435 364.14062 339.92685 364.14062Q341.4581 364.14062 342.3331 365.29688Q343.22372 366.4375 343.22372 368.48438L343.22372 368.60938ZM341.78622 368.45312Q341.78622 367.01562 341.17685 366.1875Q340.56747 365.35938 339.50497 365.35938Q338.19247 365.35938 337.53622 366.53125L337.53622 370.5625Q338.17685 371.71875 339.5206 371.71875Q340.55185 371.71875 341.16122 370.90625Q341.78622 370.07812 341.78622 368.45312Z" fill-rule="nonzero"/><path fill="#757575" d="M541.27625 361.375L544.995 370.65625L548.71375 361.375L550.65125 361.375L550.65125 372.75L549.15125 372.75L549.15125 368.3125L549.2919 363.53125L545.5575 372.75L544.4169 372.75L540.6825 363.5625L540.83875 368.3125L540.83875 372.75L539.33875 372.75L539.33875 361.375L541.27625 361.375ZM552.7294 368.4375Q552.7294 367.20312 553.21375 366.21875Q553.6981 365.21875 554.5731 364.6875Q555.4481 364.14062 556.5575 364.14062Q558.2919 364.14062 559.3544 365.34375Q560.4169 366.53125 560.4169 368.51562L560.4169 368.60938Q560.4169 369.84375 559.9481 370.82812Q559.4794 371.8125 558.58875 372.35938Q557.71375 372.90625 556.5731 372.90625Q554.8544 372.90625 553.7919 371.71875Q552.7294 370.51562 552.7294 368.54688L552.7294 368.4375ZM554.1825 368.60938Q554.1825 370.01562 554.8231 370.875Q555.4794 371.71875 556.5731 371.71875Q557.6825 371.71875 558.3231 370.85938Q558.9794 370.0 558.9794 368.4375Q558.9794 367.04688 558.3075 366.1875Q557.65125 365.32812 556.5575 365.32812Q555.495 365.32812 554.83875 366.1875Q554.1825 367.03125 554.1825 368.60938ZM569.2606 368.60938Q569.2606 370.54688 568.37 371.73438Q567.4794 372.90625 565.9794 372.90625Q564.3856 372.90625 563.5106 371.76562L563.4325 372.75L562.1044 372.75L562.1044 360.75L563.5575 360.75L563.5575 365.21875Q564.4325 364.14062 565.96375 364.14062Q567.5106 364.14062 568.3856 365.3125Q569.2606 366.46875 569.2606 368.48438L569.2606 368.60938ZM567.8231 368.45312Q567.8231 366.96875 567.245 366.17188Q566.6825 365.35938 565.6044 365.35938Q564.1825 365.35938 563.5575 366.6875L563.5575 370.34375Q564.21375 371.67188 565.62 371.67188Q566.6669 371.67188 567.245 370.875Q567.8231 370.0625 567.8231 368.45312ZM572.6825 372.75L571.2294 372.75L571.2294 364.29688L572.6825 364.29688L572.6825 372.75ZM571.12 362.04688Q571.12 361.70312 571.3231 361.46875Q571.5419 361.21875 571.96375 361.21875Q572.3856 361.21875 572.6044 361.46875Q572.8231 361.70312 572.8231 362.0625Q572.8231 362.40625 572.6044 362.64062Q572.3856 362.875 571.96375 362.875Q571.5419 362.875 571.3231 362.64062Q571.12 362.40625 571.12 362.04688ZM576.6825 372.75L575.2294 372.75L575.2294 360.75L576.6825 360.75L576.6825 372.75ZM582.62 372.90625Q580.90125 372.90625 579.8231 371.78125Q578.745 370.64062 578.745 368.75L578.745 368.48438Q578.745 367.23438 579.21375 366.25Q579.6981 365.25 580.5575 364.70312Q581.4325 364.14062 582.4325 364.14062Q584.08875 364.14062 584.995 365.23438Q585.9169 366.3125 585.9169 368.32812L585.9169 368.9375L580.1825 368.9375Q580.21375 370.1875 580.9169 370.95312Q581.62 371.71875 582.6981 371.71875Q583.46375 371.71875 583.995 371.40625Q584.52625 371.09375 584.9169 370.57812L585.8075 371.26562Q584.745 372.90625 582.62 372.90625ZM582.4325 365.32812Q581.5575 365.32812 580.96375 365.96875Q580.37 366.59375 580.2294 367.75L584.46375 367.75L584.46375 367.64062Q584.40125 366.53125 583.87 365.9375Q583.33875 365.32812 582.4325 365.32812Z" fill-rule="nonzero"/></svg>