<svg version="1.1" viewBox="0.0 0.0 600.0 371.0" fill="none" stroke="none" stroke-linecap="square" stroke-miterlimit="10" width="600" height="371" xmlns:xlink="http://www.w3.org/1999/xlink" xmlns="http://www.w3.org/2000/svg"><path fill="#ffffff" d="M0 0L600.0 0L600.0 371.0L0 371.0L0 0Z" fill-rule="nonzero"/><path fill="#4285f4" d="M300.0 78.916664C310.07346 78.916664 320.11606 80.02959 329.9451 82.23517L300.0 215.68333Z" fill-rule="nonzero"/><path fill="#ea4335" d="M329.9451 82.23517C336.77423 83.76759 343.47565 85.82197 349.9903 88.38019L300.0 215.68333Z" fill-rule="nonzero"/><path fill="#fbbc04" d="M349.9903 88.38019C356.13083 90.7915 362.08887 93.64393 367.8177 96.91515L300.0 215.68333Z" fill-rule="nonzero"/><path fill="#34a853" d="M367.8177 96.91515C371.32877 98.920006 374.7492 101.07957 378.06894 103.387474L300.0 215.68333Z" fill-rule="nonzero"/><path fill="#ff6d01" d="M378.06894 103.387474C381.12964 105.51528 384.10202 107.76733 386.97873 110.13797L300.0 215.68333Z" fill-rule="nonzero"/><path fill="#46bdc6" d="M386.97873 110.13797C389.14716 111.924965 391.26004 113.77836 393.3143 115.69552L300.0 215.68333Z" fill-rule="nonzero"/><path fill="#7baaf7" d="M393.3143 115.69552C394.1527 116.47798 394.98126 117.27096 395.79974 118.074265L300.0 215.68333Z" fill-rule="nonzero"/><path fill="#f07b72" d="M395.79974 118.074265C397.39584 119.64076 398.95325 121.24618 400.4706 122.88905L300.0 215.68333Z" fill-rule="nonzero"/><path fill="#fcd04f" d="M400.4706 122.88905C401.73505 124.258095 402.97137 125.65284 404.17883 127.07241L300.0 215.68333Z" fill-rule="nonzero"/><path fill="#71c287" d="M404.17883 127.07241C405.07047 128.1207 405.9462 129.18237 406.8058 130.2571L300.0 215.68333Z" fill-rule="nonzero"/><path fill="#ff994d" d="M406.8058 130.2571C407.55792 131.19746 408.2976 132.14774 409.02466 133.10764L300.0 215.68333Z" fill-rule="nonzero"/><path fill="#7ed1d7" d="M409.02466 133.10764C409.2843 133.45045 409.54236 133.79451 409.79877 134.13976L300.0 215.68333Z" fill-rule="nonzero"/><path fill="#b3cefb" d="M409.79877 134.13976C447.58093 185.01363 445.46777 255.17877 404.6925 303.68674C363.91724 352.1947 295.16022 366.3397 238.54808 337.86673C181.93593 309.39374 152.29721 245.76076 166.9291 184.10402C181.56096 122.44729 236.63089 78.916664 300.0 78.916664L300.0 215.68333Z" fill-rule="nonzero"/><path fill="#1a1a1a" d="M19.096874 324.49194L20.159374 324.3982Q20.2375 325.05444 20.51875 325.4607Q20.8 325.86694 21.378124 326.13257Q21.971874 326.38257 22.70625 326.38257Q23.346874 326.38257 23.846874 326.19507Q24.346874 325.99194 24.58125 325.66382Q24.83125 325.32007 24.83125 324.92944Q24.83125 324.5232 24.596874 324.22632Q24.3625 323.91382 23.83125 323.7107Q23.471874 323.57007 22.284374 323.28882Q21.1125 323.00757 20.64375 322.75757Q20.01875 322.42944 19.721874 321.9607Q19.425 321.47632 19.425 320.88257Q19.425 320.24194 19.784374 319.67944Q20.159374 319.10132 20.8625 318.82007Q21.58125 318.5232 22.440624 318.5232Q23.39375 318.5232 24.128124 318.8357Q24.8625 319.13257 25.253124 319.74194Q25.64375 320.3357 25.675 321.0857L24.58125 321.16382Q24.4875 320.35132 23.971874 319.94507Q23.471874 319.5232 22.4875 319.5232Q21.45625 319.5232 20.9875 319.8982Q20.51875 320.2732 20.51875 320.80444Q20.51875 321.2732 20.846874 321.57007Q21.175 321.86694 22.55 322.17944Q23.940624 322.49194 24.45625 322.72632Q25.20625 323.0857 25.565624 323.61694Q25.925 324.13257 25.925 324.8357Q25.925 325.5232 25.534374 326.13257Q25.14375 326.72632 24.409374 327.07007Q23.675 327.3982 22.753124 327.3982Q21.58125 327.3982 20.784374 327.07007Q20.003124 326.72632 19.55 326.03882Q19.1125 325.35132 19.096874 324.49194ZM31.425 327.25757L31.425 326.3357Q30.690624 327.3982 29.440624 327.3982Q28.89375 327.3982 28.409374 327.19507Q27.940624 326.97632 27.70625 326.66382Q27.471874 326.3357 27.378124 325.86694Q27.315624 325.57007 27.315624 324.88257L27.315624 321.03882L28.378124 321.03882L28.378124 324.49194Q28.378124 325.30444 28.440624 325.60132Q28.534374 326.00757 28.846874 326.25757Q29.175 326.49194 29.659374 326.49194Q30.128124 326.49194 30.534374 326.25757Q30.95625 326.00757 31.128124 325.5857Q31.315624 325.16382 31.315624 324.36694L31.315624 321.03882L32.3625 321.03882L32.3625 327.25757L31.425 327.25757ZM34.346874 329.6482L34.346874 321.03882L35.3 321.03882L35.3 321.8357Q35.64375 321.36694 36.065624 321.13257Q36.503124 320.8982 37.1125 320.8982Q37.909374 320.8982 38.51875 321.30444Q39.128124 321.7107 39.425 322.4607Q39.7375 323.2107 39.7375 324.10132Q39.7375 325.05444 39.39375 325.82007Q39.065624 326.5857 38.409374 326.99194Q37.753124 327.3982 37.034374 327.3982Q36.503124 327.3982 36.08125 327.17944Q35.659374 326.94507 35.39375 326.61694L35.39375 329.6482L34.346874 329.6482ZM35.3 324.17944Q35.3 325.38257 35.784374 325.9607Q36.26875 326.5232 36.95625 326.5232Q37.659374 326.5232 38.159374 325.92944Q38.659374 325.3357 38.659374 324.0857Q38.659374 322.8982 38.175 322.32007Q37.690624 321.72632 37.003124 321.72632Q36.33125 321.72632 35.815624 322.35132Q35.3 322.97632 35.3 324.17944ZM41.346874 329.6482L41.346874 321.03882L42.3 321.03882L42.3 321.8357Q42.64375 321.36694 43.065624 321.13257Q43.503124 320.8982 44.1125 320.8982Q44.909374 320.8982 45.51875 321.30444Q46.128124 321.7107 46.425 322.4607Q46.7375 323.2107 46.7375 324.10132Q46.7375 325.05444 46.39375 325.82007Q46.065624 326.5857 45.409374 326.99194Q44.753124 327.3982 44.034374 327.3982Q43.503124 327.3982 43.08125 327.17944Q42.659374 326.94507 42.39375 326.61694L42.39375 329.6482L41.346874 329.6482ZM42.3 324.17944Q42.3 325.38257 42.784374 325.9607Q43.26875 326.5232 43.95625 326.5232Q44.659374 326.5232 45.159374 325.92944Q45.659374 325.3357 45.659374 324.0857Q45.659374 322.8982 45.175 322.32007Q44.690624 321.72632 44.003124 321.72632Q43.33125 321.72632 42.815624 322.35132Q42.3 322.97632 42.3 324.17944ZM47.95625 324.1482Q47.95625 322.41382 48.909374 321.5857Q49.70625 320.8982 50.8625 320.8982Q52.14375 320.8982 52.95625 321.74194Q53.784374 322.57007 53.784374 324.05444Q53.784374 325.25757 53.425 325.94507Q53.065624 326.63257 52.3625 327.0232Q51.675 327.3982 50.8625 327.3982Q49.565624 327.3982 48.753124 326.57007Q47.95625 325.72632 47.95625 324.1482ZM49.034374 324.1482Q49.034374 325.3357 49.55 325.92944Q50.08125 326.5232 50.8625 326.5232Q51.659374 326.5232 52.175 325.92944Q52.690624 325.3357 52.690624 324.11694Q52.690624 322.9607 52.159374 322.36694Q51.64375 321.7732 50.8625 321.7732Q50.08125 321.7732 49.55 322.36694Q49.034374 322.94507 49.034374 324.1482ZM55.33125 327.25757L55.33125 321.03882L56.284374 321.03882L56.284374 321.97632Q56.64375 321.32007 56.940624 321.11694Q57.253124 320.8982 57.628124 320.8982Q58.159374 320.8982 58.70625 321.22632L58.346874 322.2107Q57.95625 321.97632 57.58125 321.97632Q57.221874 321.97632 56.940624 322.19507Q56.675 322.3982 56.565624 322.7732Q56.378124 323.3357 56.378124 323.99194L56.378124 327.25757L55.33125 327.25757ZM61.64375 326.32007L61.8 327.24194Q61.346874 327.3357 61.003124 327.3357Q60.425 327.3357 60.1125 327.16382Q59.8 326.97632 59.659374 326.67944Q59.534374 326.38257 59.534374 325.42944L59.534374 321.85132L58.76875 321.85132L58.76875 321.03882L59.534374 321.03882L59.534374 319.49194L60.58125 318.86694L60.58125 321.03882L61.64375 321.03882L61.64375 321.85132L60.58125 321.85132L60.58125 325.49194Q60.58125 325.94507 60.628124 326.07007Q60.690624 326.19507 60.815624 326.2732Q60.940624 326.35132 61.175 326.35132Q61.3625 326.35132 61.64375 326.32007ZM61.925 325.3982L62.95625 325.24194Q63.05 325.86694 63.440624 326.19507Q63.846874 326.5232 64.58125 326.5232Q65.3 326.5232 65.64375 326.24194Q66.00313 325.94507 66.00313 325.53882Q66.00313 325.17944 65.69063 324.97632Q65.47188 324.8357 64.6125 324.61694Q63.45625 324.32007 63.003124 324.11694Q62.565624 323.8982 62.33125 323.5232Q62.096874 323.1482 62.096874 322.67944Q62.096874 322.2732 62.284374 321.91382Q62.471874 321.55444 62.8 321.32007Q63.05 321.1482 63.471874 321.0232Q63.89375 320.8982 64.39375 320.8982Q65.1125 320.8982 65.65938 321.11694Q66.22188 321.32007 66.4875 321.67944Q66.75313 322.03882 66.84688 322.63257L65.81563 322.7732Q65.75313 322.30444 65.40938 322.03882Q65.08125 321.75757 64.45625 321.75757Q63.7375 321.75757 63.425 322.00757Q63.1125 322.24194 63.1125 322.57007Q63.1125 322.7732 63.2375 322.92944Q63.378124 323.10132 63.64375 323.2107Q63.8 323.2732 64.58125 323.47632Q65.70625 323.78882 66.14375 323.97632Q66.58125 324.16382 66.83125 324.5232Q67.08125 324.88257 67.08125 325.42944Q67.08125 325.9607 66.76875 326.42944Q66.47188 326.88257 65.89375 327.1482Q65.31563 327.3982 64.58125 327.3982Q63.3625 327.3982 62.721874 326.8982Q62.096874 326.38257 61.925 325.3982Z" fill-rule="nonzero"/><path fill="#9e9e9e" d="M20.675 339.60132Q20.01875 339.35132 19.690624 338.91382Q19.378124 338.4607 19.378124 337.85132Q19.378124 336.91382 20.05 336.2732Q20.7375 335.63257 21.846874 335.63257Q22.971874 335.63257 23.659374 336.28882Q24.346874 336.94507 24.346874 337.88257Q24.346874 338.47632 24.034374 338.91382Q23.721874 339.35132 23.08125 339.60132Q23.878124 339.85132 24.284374 340.42944Q24.690624 341.00757 24.690624 341.80444Q24.690624 342.8982 23.909374 343.6482Q23.14375 344.3982 21.8625 344.3982Q20.596874 344.3982 19.815624 343.6482Q19.034374 342.8982 19.034374 341.7732Q19.034374 340.92944 19.45625 340.36694Q19.89375 339.80444 20.675 339.60132ZM20.45625 337.80444Q20.45625 338.41382 20.846874 338.80444Q21.253124 339.19507 21.878124 339.19507Q22.4875 339.19507 22.878124 338.82007Q23.26875 338.42944 23.26875 337.86694Q23.26875 337.28882 22.8625 336.8982Q22.45625 336.49194 21.8625 336.49194Q21.253124 336.49194 20.846874 336.88257Q20.45625 337.2732 20.45625 337.80444ZM20.128124 341.7732Q20.128124 342.22632 20.33125 342.6482Q20.55 343.07007 20.971874 343.30444Q21.39375 343.53882 21.878124 343.53882Q22.628124 343.53882 23.1125 343.05444Q23.6125 342.57007 23.6125 341.82007Q23.6125 341.05444 23.1125 340.55444Q22.6125 340.05444 21.846874 340.05444Q21.096874 340.05444 20.6125 340.55444Q20.128124 341.03882 20.128124 341.7732ZM26.05 342.00757L27.159374 341.91382Q27.284374 342.72632 27.721874 343.13257Q28.175 343.53882 28.815624 343.53882Q29.565624 343.53882 30.096874 342.9607Q30.628124 342.38257 30.628124 341.44507Q30.628124 340.53882 30.1125 340.0232Q29.6125 339.49194 28.784374 339.49194Q28.284374 339.49194 27.8625 339.72632Q27.45625 339.9607 27.221874 340.32007L26.2375 340.19507L27.065624 335.78882L31.346874 335.78882L31.346874 336.78882L27.909374 336.78882L27.45625 339.10132Q28.221874 338.55444 29.065624 338.55444Q30.190624 338.55444 30.95625 339.3357Q31.7375 340.11694 31.7375 341.35132Q31.7375 342.50757 31.065624 343.36694Q30.2375 344.3982 28.815624 344.3982Q27.64375 344.3982 26.89375 343.74194Q26.159374 343.0857 26.05 342.00757ZM33.64375 344.25757L33.64375 343.05444L34.846874 343.05444L34.846874 344.25757L33.64375 344.25757ZM41.596874 343.24194L41.596874 344.25757L35.909374 344.25757Q35.909374 343.88257 36.034374 343.5232Q36.253124 342.94507 36.721874 342.38257Q37.20625 341.82007 38.1125 341.0857Q39.51875 339.92944 40.003124 339.25757Q40.503124 338.5857 40.503124 337.99194Q40.503124 337.36694 40.05 336.94507Q39.596874 336.50757 38.878124 336.50757Q38.1125 336.50757 37.659374 336.9607Q37.20625 337.41382 37.190624 338.22632L36.1125 338.11694Q36.221874 336.8982 36.940624 336.2732Q37.675 335.63257 38.909374 335.63257Q40.14375 335.63257 40.8625 336.32007Q41.58125 337.00757 41.58125 338.0232Q41.58125 338.53882 41.3625 339.03882Q41.159374 339.5232 40.659374 340.0857Q40.175 340.63257 39.05 341.5857Q38.096874 342.38257 37.815624 342.67944Q37.55 342.9607 37.378124 343.24194L41.596874 343.24194ZM43.253124 337.72632Q43.253124 336.80444 43.70625 336.16382Q44.175 335.5232 45.05 335.5232Q45.8625 335.5232 46.39375 336.10132Q46.925 336.67944 46.925 337.78882Q46.925 338.88257 46.378124 339.47632Q45.846874 340.05444 45.065624 340.05444Q44.284374 340.05444 43.76875 339.47632Q43.253124 338.8982 43.253124 337.72632ZM45.08125 336.24194Q44.690624 336.24194 44.425 336.5857Q44.175 336.92944 44.175 337.8357Q44.175 338.66382 44.425 339.00757Q44.690624 339.3357 45.08125 339.3357Q45.4875 339.3357 45.7375 338.99194Q46.003124 338.6482 46.003124 337.75757Q46.003124 336.91382 45.7375 336.5857Q45.471874 336.24194 45.08125 336.24194ZM45.08125 344.57007L49.784374 335.5232L50.64375 335.5232L45.95625 344.57007L45.08125 344.57007ZM48.8 342.24194Q48.8 341.32007 49.253124 340.67944Q49.721874 340.03882 50.6125 340.03882Q51.425 340.03882 51.95625 340.61694Q52.4875 341.17944 52.4875 342.30444Q52.4875 343.3982 51.940624 343.99194Q51.409374 344.57007 50.6125 344.57007Q49.846874 344.57007 49.315624 343.99194Q48.8 343.41382 48.8 342.24194ZM50.64375 340.75757Q50.2375 340.75757 49.971874 341.10132Q49.721874 341.44507 49.721874 342.35132Q49.721874 343.16382 49.9875 343.50757Q50.253124 343.85132 50.64375 343.85132Q51.034374 343.85132 51.3 343.50757Q51.565624 343.16382 51.565624 342.25757Q51.565624 341.42944 51.3 341.10132Q51.034374 340.75757 50.64375 340.75757Z" fill-rule="nonzero"/><path stroke="#757575" stroke-width="1.0" stroke-linecap="butt" d="M18.55 331.75757L157.23334 331.75757L241.62067 331.75757" fill-rule="nonzero"/><path fill="#9e9e9e" d="M243.62067 331.75757C243.62067 330.65298 242.72523 329.75757 241.62067 329.75757C240.5161 329.75757 239.62067 330.65298 239.62067 331.75757C239.62067 332.86212 240.5161 333.75757 241.62067 333.75757C242.72523 333.75757 243.62067 332.86212 243.62067 331.75757" fill-rule="nonzero"/><path fill="#1a1a1a" d="M522.0125 81.322914L523.15314 81.322914L523.15314 86.291664Q523.15314 87.58854 522.85626 88.354164Q522.5594 89.104164 521.79376 89.58854Q521.02814 90.05729 519.79376 90.05729Q518.59064 90.05729 517.8094 89.65104Q517.04376 89.229164 516.71564 88.447914Q516.3875 87.65104 516.3875 86.291664L516.3875 81.322914L517.52814 81.322914L517.52814 86.27604Q517.52814 87.40104 517.73126 87.93229Q517.95 88.46354 518.45 88.760414Q518.96564 89.041664 519.7 89.041664Q520.95 89.041664 521.48126 88.479164Q522.0125 87.90104 522.0125 86.27604L522.0125 81.322914ZM531.5125 86.90104L532.6375 87.197914Q532.27814 88.58854 531.35626 89.322914Q530.4344 90.05729 529.09064 90.05729Q527.7 90.05729 526.825 89.49479Q525.95 88.93229 525.4969 87.86979Q525.04376 86.791664 525.04376 85.55729Q525.04376 84.21354 525.5594 83.21354Q526.075 82.21354 527.0125 81.697914Q527.96564 81.18229 529.10626 81.18229Q530.3875 81.18229 531.2625 81.83854Q532.15314 82.49479 532.4969 83.68229L531.3719 83.947914Q531.075 83.010414 530.4969 82.58854Q529.9344 82.15104 529.075 82.15104Q528.09064 82.15104 527.41876 82.635414Q526.7625 83.104164 526.48126 83.90104Q526.21564 84.697914 526.21564 85.55729Q526.21564 86.65104 526.52814 87.46354Q526.85626 88.27604 527.52814 88.68229Q528.2 89.08854 528.9969 89.08854Q529.95 89.08854 530.60626 88.541664Q531.27814 87.99479 531.5125 86.90104ZM537.325 89.916664L537.325 81.322914L540.5594 81.322914Q541.54376 81.322914 542.1375 81.58854Q542.73126 81.854164 543.0594 82.40104Q543.40314 82.93229 543.40314 83.52604Q543.40314 84.072914 543.10626 84.55729Q542.8094 85.041664 542.2 85.33854Q542.98126 85.572914 543.3875 86.135414Q543.8094 86.68229 543.8094 87.43229Q543.8094 88.02604 543.5594 88.55729Q543.3094 89.072914 542.9344 89.354164Q542.5594 89.635414 541.98126 89.77604Q541.41876 89.916664 540.60626 89.916664L537.325 89.916664ZM538.46564 84.93229L540.325 84.93229Q541.075 84.93229 541.40314 84.83854Q541.84064 84.71354 542.0594 84.416664Q542.27814 84.104164 542.27814 83.65104Q542.27814 83.229164 542.075 82.90104Q541.8719 82.572914 541.48126 82.46354Q541.10626 82.33854 540.1844 82.33854L538.46564 82.33854L538.46564 84.93229ZM538.46564 88.90104L540.60626 88.90104Q541.15314 88.90104 541.3719 88.854164Q541.77814 88.791664 542.02814 88.635414Q542.29376 88.46354 542.46564 88.15104Q542.6375 87.83854 542.6375 87.43229Q542.6375 86.947914 542.3875 86.58854Q542.15314 86.229164 541.71564 86.08854Q541.27814 85.947914 540.45 85.947914L538.46564 85.947914L538.46564 88.90104ZM545.23126 89.916664L545.23126 83.697914L546.1844 83.697914L546.1844 84.635414Q546.54376 83.979164 546.84064 83.77604Q547.15314 83.55729 547.52814 83.55729Q548.0594 83.55729 548.60626 83.885414L548.2469 84.86979Q547.85626 84.635414 547.48126 84.635414Q547.1219 84.635414 546.84064 84.854164Q546.575 85.05729 546.46564 85.43229Q546.27814 85.99479 546.27814 86.65104L546.27814 89.916664L545.23126 89.916664ZM548.85626 86.80729Q548.85626 85.072914 549.8094 84.24479Q550.60626 83.55729 551.7625 83.55729Q553.04376 83.55729 553.85626 84.40104Q554.6844 85.229164 554.6844 86.71354Q554.6844 87.916664 554.325 88.604164Q553.96564 89.291664 553.2625 89.68229Q552.575 90.05729 551.7625 90.05729Q550.46564 90.05729 549.65314 89.229164Q548.85626 88.385414 548.85626 86.80729ZM549.9344 86.80729Q549.9344 87.99479 550.45 88.58854Q550.98126 89.18229 551.7625 89.18229Q552.5594 89.18229 553.075 88.58854Q553.59064 87.99479 553.59064 86.77604Q553.59064 85.61979 553.0594 85.02604Q552.54376 84.43229 551.7625 84.43229Q550.98126 84.43229 550.45 85.02604Q549.9344 85.604164 549.9344 86.80729ZM557.3875 89.916664L555.48126 83.697914L556.575 83.697914L557.5594 87.291664L557.9344 88.61979Q557.96564 88.52604 558.2625 87.33854L559.2469 83.697914L560.325 83.697914L561.2625 87.30729L561.575 88.49479L561.9344 87.291664L562.9969 83.697914L564.02814 83.697914L562.075 89.916664L560.98126 89.916664L559.9969 86.18229L559.7469 85.135414L558.4969 89.916664L557.3875 89.916664ZM564.825 88.05729L565.85626 87.90104Q565.95 88.52604 566.34064 88.854164Q566.7469 89.18229 567.48126 89.18229Q568.2 89.18229 568.54376 88.90104Q568.90314 88.604164 568.90314 88.197914Q568.90314 87.83854 568.59064 87.635414Q568.3719 87.49479 567.5125 87.27604Q566.35626 86.979164 565.90314 86.77604Q565.46564 86.55729 565.23126 86.18229Q564.9969 85.80729 564.9969 85.33854Q564.9969 84.93229 565.1844 84.572914Q565.3719 84.21354 565.7 83.979164Q565.95 83.80729 566.3719 83.68229Q566.79376 83.55729 567.29376 83.55729Q568.0125 83.55729 568.5594 83.77604Q569.1219 83.979164 569.3875 84.33854Q569.65314 84.697914 569.7469 85.291664L568.71564 85.43229Q568.65314 84.96354 568.3094 84.697914Q567.98126 84.416664 567.35626 84.416664Q566.6375 84.416664 566.325 84.666664Q566.0125 84.90104 566.0125 85.229164Q566.0125 85.43229 566.1375 85.58854Q566.27814 85.760414 566.54376 85.86979Q566.7 85.93229 567.48126 86.135414Q568.60626 86.447914 569.04376 86.635414Q569.48126 86.822914 569.73126 87.18229Q569.98126 87.541664 569.98126 88.08854Q569.98126 88.61979 569.66876 89.08854Q569.3719 89.541664 568.79376 89.80729Q568.21564 90.05729 567.48126 90.05729Q566.2625 90.05729 565.6219 89.55729Q564.9969 89.041664 564.825 88.05729ZM575.4969 87.916664L576.59064 88.041664Q576.34064 88.99479 575.6375 89.52604Q574.9344 90.05729 573.85626 90.05729Q572.4969 90.05729 571.6844 89.21354Q570.8875 88.36979 570.8875 86.854164Q570.8875 85.291664 571.7 84.43229Q572.5125 83.55729 573.79376 83.55729Q575.04376 83.55729 575.825 84.40104Q576.6219 85.24479 576.6219 86.791664Q576.6219 86.885414 576.6219 87.072914L571.98126 87.072914Q572.04376 88.104164 572.5594 88.65104Q573.075 89.18229 573.85626 89.18229Q574.4344 89.18229 574.84064 88.885414Q575.2625 88.572914 575.4969 87.916664ZM572.04376 86.21354L575.5125 86.21354Q575.45 85.416664 575.1219 85.02604Q574.60626 84.416664 573.8094 84.416664Q573.075 84.416664 572.575 84.90104Q572.09064 85.385414 572.04376 86.21354ZM578.23126 89.916664L578.23126 83.697914L579.1844 83.697914L579.1844 84.635414Q579.54376 83.979164 579.84064 83.77604Q580.15314 83.55729 580.52814 83.55729Q581.0594 83.55729 581.60626 83.885414L581.2469 84.86979Q580.85626 84.635414 580.48126 84.635414Q580.1219 84.635414 579.84064 84.854164Q579.575 85.05729 579.46564 85.43229Q579.27814 85.99479 579.27814 86.65104L579.27814 89.916664L578.23126 89.916664Z" fill-rule="nonzero"/><path fill="#9e9e9e" d="M553.95 104.65104L555.0125 104.510414Q555.1844 105.40104 555.6219 105.80729Q556.0594 106.197914 556.6844 106.197914Q557.4344 106.197914 557.95 105.68229Q558.46564 105.166664 558.46564 104.40104Q558.46564 103.68229 557.98126 103.21354Q557.5125 102.729164 556.77814 102.729164Q556.48126 102.729164 556.02814 102.854164L556.15314 101.916664Q556.2625 101.93229 556.325 101.93229Q556.9969 101.93229 557.52814 101.58854Q558.075 101.229164 558.075 100.49479Q558.075 99.916664 557.6844 99.541664Q557.29376 99.15104 556.66876 99.15104Q556.0594 99.15104 555.6375 99.541664Q555.23126 99.93229 555.1219 100.697914L554.0594 100.510414Q554.2469 99.46354 554.9344 98.885414Q555.6219 98.291664 556.6375 98.291664Q557.34064 98.291664 557.9344 98.604164Q558.52814 98.90104 558.84064 99.416664Q559.15314 99.93229 559.15314 100.52604Q559.15314 101.072914 558.85626 101.541664Q558.5594 101.99479 557.98126 102.260414Q558.73126 102.43229 559.15314 102.99479Q559.575 103.541664 559.575 104.385414Q559.575 105.510414 558.7469 106.291664Q557.9344 107.072914 556.6844 107.072914Q555.5594 107.072914 554.8094 106.40104Q554.0594 105.71354 553.95 104.65104ZM561.54376 106.916664L561.54376 105.71354L562.7469 105.71354L562.7469 106.916664L561.54376 106.916664ZM563.95 104.666664L565.0594 104.572914Q565.1844 105.385414 565.6219 105.791664Q566.075 106.197914 566.71564 106.197914Q567.46564 106.197914 567.9969 105.61979Q568.52814 105.041664 568.52814 104.104164Q568.52814 103.197914 568.0125 102.68229Q567.5125 102.15104 566.6844 102.15104Q566.1844 102.15104 565.7625 102.385414Q565.35626 102.61979 565.1219 102.979164L564.1375 102.854164L564.96564 98.447914L569.2469 98.447914L569.2469 99.447914L565.8094 99.447914L565.35626 101.760414Q566.1219 101.21354 566.96564 101.21354Q568.09064 101.21354 568.85626 101.99479Q569.6375 102.77604 569.6375 104.010414Q569.6375 105.166664 568.96564 106.02604Q568.1375 107.05729 566.71564 107.05729Q565.54376 107.05729 564.79376 106.40104Q564.0594 105.74479 563.95 104.666664ZM571.15314 100.385414Q571.15314 99.46354 571.60626 98.822914Q572.075 98.18229 572.95 98.18229Q573.7625 98.18229 574.29376 98.760414Q574.825 99.33854 574.825 100.447914Q574.825 101.541664 574.27814 102.135414Q573.7469 102.71354 572.96564 102.71354Q572.1844 102.71354 571.66876 102.135414Q571.15314 101.55729 571.15314 100.385414ZM572.98126 98.90104Q572.59064 98.90104 572.325 99.24479Q572.075 99.58854 572.075 100.49479Q572.075 101.322914 572.325 101.666664Q572.59064 101.99479 572.98126 101.99479Q573.3875 101.99479 573.6375 101.65104Q573.90314 101.30729 573.90314 100.416664Q573.90314 99.572914 573.6375 99.24479Q573.3719 98.90104 572.98126 98.90104ZM572.98126 107.229164L577.6844 98.18229L578.54376 98.18229L573.85626 107.229164L572.98126 107.229164ZM576.7 104.90104Q576.7 103.979164 577.15314 103.33854Q577.6219 102.697914 578.5125 102.697914Q579.325 102.697914 579.85626 103.27604Q580.3875 103.83854 580.3875 104.96354Q580.3875 106.05729 579.84064 106.65104Q579.3094 107.229164 578.5125 107.229164Q577.7469 107.229164 577.21564 106.65104Q576.7 106.072914 576.7 104.90104ZM578.54376 103.416664Q578.1375 103.416664 577.8719 103.760414Q577.6219 104.104164 577.6219 105.010414Q577.6219 105.822914 577.8875 106.166664Q578.15314 106.510414 578.54376 106.510414Q578.9344 106.510414 579.2 106.166664Q579.46564 105.822914 579.46564 104.916664Q579.46564 104.08854 579.2 103.760414Q578.9344 103.416664 578.54376 103.416664Z" fill-rule="nonzero"/><path stroke="#757575" stroke-width="1.0" stroke-linecap="butt" d="M581.45 94.416664L442.76666 94.416664L314.311 86.54555" fill-rule="nonzero"/><path fill="#9e9e9e" d="M316.311 86.54555C316.311 85.44098 315.41556 84.54555 314.311 84.54555C313.20642 84.54555 312.311 85.44098 312.311 86.54555C312.311 87.650116 313.20642 88.54555 314.311 88.54555C315.41556 88.54555 316.311 87.650116 316.311 86.54555" fill-rule="nonzero"/><path fill="#1a1a1a" d="M571.575 120.916664L571.575 112.322914L572.7 112.322914L572.7 120.916664L571.575 120.916664ZM574.40314 120.916664L574.40314 112.322914L580.60626 112.322914L580.60626 113.33854L575.54376 113.33854L575.54376 115.96354L580.29376 115.96354L580.29376 116.979164L575.54376 116.979164L575.54376 119.90104L580.8094 119.90104L580.8094 120.916664L574.40314 120.916664Z" fill-rule="nonzero"/><path fill="#9e9e9e" d="M559.4969 136.90105L559.4969 137.91667L553.8094 137.91667Q553.8094 137.54167 553.9344 137.1823Q554.15314 136.60417 554.6219 136.04167Q555.10626 135.47917 556.0125 134.7448Q557.41876 133.58855 557.90314 132.91667Q558.40314 132.2448 558.40314 131.65105Q558.40314 131.02605 557.95 130.60417Q557.4969 130.16667 556.77814 130.16667Q556.0125 130.16667 555.5594 130.6198Q555.10626 131.07292 555.09064 131.88542L554.0125 131.77605Q554.1219 130.5573 554.84064 129.9323Q555.575 129.29167 556.8094 129.29167Q558.04376 129.29167 558.7625 129.97917Q559.48126 130.66667 559.48126 131.6823Q559.48126 132.19792 559.2625 132.69792Q559.0594 133.1823 558.5594 133.7448Q558.075 134.29167 556.95 135.2448Q555.9969 136.04167 555.71564 136.33855Q555.45 136.6198 555.27814 136.90105L559.4969 136.90105ZM561.54376 137.91667L561.54376 136.71355L562.7469 136.71355L562.7469 137.91667L561.54376 137.91667ZM567.325 137.91667L567.325 135.85417L563.60626 135.85417L563.60626 134.88542L567.52814 129.32292L568.3875 129.32292L568.3875 134.88542L569.54376 134.88542L569.54376 135.85417L568.3875 135.85417L568.3875 137.91667L567.325 137.91667ZM567.325 134.88542L567.325 131.02605L564.6375 134.88542L567.325 134.88542ZM571.15314 131.38542Q571.15314 130.46355 571.60626 129.82292Q572.075 129.1823 572.95 129.1823Q573.7625 129.1823 574.29376 129.76042Q574.825 130.33855 574.825 131.44792Q574.825 132.54167 574.27814 133.13542Q573.7469 133.71355 572.96564 133.71355Q572.1844 133.71355 571.66876 133.13542Q571.15314 132.5573 571.15314 131.38542ZM572.98126 129.90105Q572.59064 129.90105 572.325 130.2448Q572.075 130.58855 572.075 131.4948Q572.075 132.32292 572.325 132.66667Q572.59064 132.9948 572.98126 132.9948Q573.3875 132.9948 573.6375 132.65105Q573.90314 132.3073 573.90314 131.41667Q573.90314 130.57292 573.6375 130.2448Q573.3719 129.90105 572.98126 129.90105ZM572.98126 138.22917L577.6844 129.1823L578.54376 129.1823L573.85626 138.22917L572.98126 138.22917ZM576.7 135.90105Q576.7 134.97917 577.15314 134.33855Q577.6219 133.69792 578.5125 133.69792Q579.325 133.69792 579.85626 134.27605Q580.3875 134.83855 580.3875 135.96355Q580.3875 137.0573 579.84064 137.65105Q579.3094 138.22917 578.5125 138.22917Q577.7469 138.22917 577.21564 137.65105Q576.7 137.07292 576.7 135.90105ZM578.54376 134.41667Q578.1375 134.41667 577.8719 134.76042Q577.6219 135.10417 577.6219 136.01042Q577.6219 136.82292 577.8875 137.16667Q578.15314 137.51042 578.54376 137.51042Q578.9344 137.51042 579.2 137.16667Q579.46564 136.82292 579.46564 135.91667Q579.46564 135.08855 579.2 134.76042Q578.9344 134.41667 578.54376 134.41667Z" fill-rule="nonzero"/><path stroke="#757575" stroke-width="1.0" stroke-linecap="butt" d="M581.45 125.416664L442.76666 125.416664L338.08133 91.46102" fill-rule="nonzero"/><path fill="#9e9e9e" d="M340.08133 91.46102C340.08133 90.35645 339.1859 89.46102 338.08133 89.46102C336.97678 89.46102 336.08133 90.35645 336.08133 91.46102C336.08133 92.56559 336.97678 93.46102 338.08133 93.46102C339.1859 93.46102 340.08133 92.56559 340.08133 91.46102" fill-rule="nonzero"/><path fill="#757575" d="M20.034374 38.55L20.034374 24.2375L22.89375 24.2375L26.26875 34.3625Q26.7375 35.784374 26.95625 36.4875Q27.20625 35.70625 27.721874 34.190624L31.14375 24.2375L33.690624 24.2375L33.690624 38.55L31.878124 38.55L31.878124 26.565624L27.70625 38.55L26.003124 38.55L21.8625 26.3625L21.8625 38.55L20.034374 38.55ZM43.64375 37.26875Q42.659374 38.096874 41.753124 38.440624Q40.846874 38.784374 39.815624 38.784374Q38.1125 38.784374 37.190624 37.95625Q36.26875 37.1125 36.26875 35.815624Q36.26875 35.05 36.6125 34.425Q36.971874 33.8 37.534374 33.425Q38.096874 33.034374 38.8 32.83125Q39.315624 32.70625 40.3625 32.565624Q42.4875 32.315624 43.4875 31.971874Q43.503124 31.6125 43.503124 31.503124Q43.503124 30.440624 43.003124 29.9875Q42.33125 29.39375 41.003124 29.39375Q39.753124 29.39375 39.159374 29.83125Q38.58125 30.26875 38.3 31.378124L36.58125 31.14375Q36.815624 30.034374 37.346874 29.3625Q37.878124 28.675 38.89375 28.315624Q39.909374 27.940624 41.253124 27.940624Q42.58125 27.940624 43.409374 28.253124Q44.2375 28.565624 44.628124 29.05Q45.01875 29.51875 45.175 30.2375Q45.26875 30.690624 45.26875 31.8625L45.26875 34.20625Q45.26875 36.659374 45.378124 37.315624Q45.4875 37.95625 45.83125 38.55L43.9875 38.55Q43.721874 38.003124 43.64375 37.26875ZM43.4875 33.346874Q42.534374 33.7375 40.6125 34.003124Q39.534374 34.159374 39.08125 34.3625Q38.64375 34.55 38.39375 34.925Q38.14375 35.3 38.14375 35.76875Q38.14375 36.471874 38.675 36.940624Q39.20625 37.409374 40.2375 37.409374Q41.253124 37.409374 42.034374 36.971874Q42.83125 36.51875 43.20625 35.753124Q43.4875 35.14375 43.4875 33.9875L43.4875 33.346874ZM47.846874 38.55L47.846874 28.175L49.425 28.175L49.425 29.753124Q50.034374 28.64375 50.55 28.3Q51.065624 27.940624 51.675 27.940624Q52.565624 27.940624 53.4875 28.503124L52.878124 30.14375Q52.2375 29.753124 51.596874 29.753124Q51.01875 29.753124 50.55 30.1125Q50.096874 30.45625 49.89375 31.065624Q49.6125 32.003124 49.6125 33.1125L49.6125 38.55L47.846874 38.55ZM54.878124 38.55L54.878124 24.2375L56.64375 24.2375L56.64375 32.39375L60.8 28.175L63.065624 28.175L59.1125 32.01875L63.471874 38.55L61.3 38.55L57.878124 33.253124L56.64375 34.440624L56.64375 38.55L54.878124 38.55ZM71.97188 35.20625L73.78438 35.440624Q73.3625 37.01875 72.19063 37.909374Q71.03438 38.784374 69.22188 38.784374Q66.95625 38.784374 65.6125 37.39375Q64.28438 35.9875 64.28438 33.45625Q64.28438 30.83125 65.62813 29.39375Q66.97188 27.940624 69.12813 27.940624Q71.20625 27.940624 72.51875 29.3625Q73.84688 30.76875 73.84688 33.346874Q73.84688 33.503124 73.83125 33.815624L66.09688 33.815624Q66.19063 35.51875 67.06563 36.425Q67.94063 37.33125 69.2375 37.33125Q70.20625 37.33125 70.87813 36.83125Q71.56563 36.315624 71.97188 35.20625ZM66.19063 32.3625L71.9875 32.3625Q71.87813 31.065624 71.33125 30.409374Q70.4875 29.39375 69.14375 29.39375Q67.94063 29.39375 67.1125 30.20625Q66.28438 31.003124 66.19063 32.3625ZM79.70625 36.971874L79.95625 38.534374Q79.22188 38.690624 78.62813 38.690624Q77.675 38.690624 77.14375 38.39375Q76.62813 38.08125 76.40938 37.596874Q76.19063 37.096874 76.19063 35.51875L76.19063 29.55L74.90938 29.55L74.90938 28.175L76.19063 28.175L76.19063 25.6125L77.94063 24.55L77.94063 28.175L79.70625 28.175L79.70625 29.55L77.94063 29.55L77.94063 35.6125Q77.94063 36.3625 78.03438 36.58125Q78.12813 36.784374 78.33125 36.925Q78.55 37.05 78.94063 37.05Q79.22188 37.05 79.70625 36.971874ZM87.45625 33.95625L89.2375 33.8Q89.3625 34.8625 89.81563 35.55Q90.28438 36.2375 91.25313 36.675Q92.2375 37.096874 93.47188 37.096874Q94.55 37.096874 95.37813 36.784374Q96.20625 36.45625 96.6125 35.89375Q97.01875 35.33125 97.01875 34.659374Q97.01875 33.9875 96.62813 33.4875Q96.2375 32.9875 95.34688 32.64375Q94.76875 32.409374 92.78438 31.940624Q90.81563 31.471874 90.03438 31.05Q89.00313 30.51875 88.50313 29.721874Q88.00313 28.925 88.00313 27.940624Q88.00313 26.846874 88.6125 25.909374Q89.22188 24.971874 90.40938 24.4875Q91.59688 23.9875 93.03438 23.9875Q94.62813 23.9875 95.84688 24.503124Q97.06563 25.01875 97.70625 26.01875Q98.3625 27.003124 98.40938 28.26875L96.59688 28.409374Q96.45625 27.05 95.6125 26.3625Q94.76875 25.659374 93.1125 25.659374Q91.39375 25.659374 90.59688 26.3Q89.81563 26.925 89.81563 27.8Q89.81563 28.58125 90.37813 29.08125Q90.925 29.58125 93.2375 30.096874Q95.55 30.6125 96.40938 31.003124Q97.65938 31.58125 98.25313 32.471874Q98.84688 33.346874 98.84688 34.503124Q98.84688 35.64375 98.19063 36.659374Q97.53438 37.675 96.3 38.2375Q95.08125 38.8 93.55 38.8Q91.6125 38.8 90.3 38.2375Q88.9875 37.659374 88.2375 36.51875Q87.4875 35.378124 87.45625 33.95625ZM100.8625 38.55L100.8625 24.2375L102.62813 24.2375L102.62813 29.3625Q103.8625 27.940624 105.7375 27.940624Q106.87813 27.940624 107.72188 28.39375Q108.58125 28.846874 108.94063 29.659374Q109.31563 30.45625 109.31563 31.971874L109.31563 38.55L107.56563 38.55L107.56563 31.971874Q107.56563 30.659374 106.9875 30.065624Q106.40938 29.45625 105.37813 29.45625Q104.59688 29.45625 103.89375 29.8625Q103.20625 30.26875 102.90938 30.971874Q102.62813 31.659374 102.62813 32.878124L102.62813 38.55L100.8625 38.55ZM118.64375 37.26875Q117.65938 38.096874 116.75313 38.440624Q115.84688 38.784374 114.81563 38.784374Q113.1125 38.784374 112.19063 37.95625Q111.26875 37.1125 111.26875 35.815624Q111.26875 35.05 111.6125 34.425Q111.97188 33.8 112.53438 33.425Q113.09688 33.034374 113.8 32.83125Q114.31563 32.70625 115.3625 32.565624Q117.4875 32.315624 118.4875 31.971874Q118.50313 31.6125 118.50313 31.503124Q118.50313 30.440624 118.00313 29.9875Q117.33125 29.39375 116.00313 29.39375Q114.75313 29.39375 114.15938 29.83125Q113.58125 30.26875 113.3 31.378124L111.58125 31.14375Q111.81563 30.034374 112.34688 29.3625Q112.87813 28.675 113.89375 28.315624Q114.90938 27.940624 116.25313 27.940624Q117.58125 27.940624 118.40938 28.253124Q119.2375 28.565624 119.62813 29.05Q120.01875 29.51875 120.175 30.2375Q120.26875 30.690624 120.26875 31.8625L120.26875 34.20625Q120.26875 36.659374 120.37813 37.315624Q120.4875 37.95625 120.83125 38.55L118.9875 38.55Q118.72188 38.003124 118.64375 37.26875ZM118.4875 33.346874Q117.53438 33.7375 115.6125 34.003124Q114.53438 34.159374 114.08125 34.3625Q113.64375 34.55 113.39375 34.925Q113.14375 35.3 113.14375 35.76875Q113.14375 36.471874 113.675 36.940624Q114.20625 37.409374 115.2375 37.409374Q116.25313 37.409374 117.03438 36.971874Q117.83125 36.51875 118.20625 35.753124Q118.4875 35.14375 118.4875 33.9875L118.4875 33.346874ZM122.84688 38.55L122.84688 28.175L124.425 28.175L124.425 29.753124Q125.03438 28.64375 125.55 28.3Q126.06563 27.940624 126.675 27.940624Q127.56563 27.940624 128.4875 28.503124L127.87813 30.14375Q127.2375 29.753124 126.59688 29.753124Q126.01875 29.753124 125.55 30.1125Q125.09688 30.45625 124.89375 31.065624Q124.6125 32.003124 124.6125 33.1125L124.6125 38.55L122.84688 38.55ZM136.97188 35.20625L138.78438 35.440624Q138.3625 37.01875 137.19063 37.909374Q136.03438 38.784374 134.22188 38.784374Q131.95625 38.784374 130.6125 37.39375Q129.28438 35.9875 129.28438 33.45625Q129.28438 30.83125 130.62813 29.39375Q131.97188 27.940624 134.12813 27.940624Q136.20625 27.940624 137.51875 29.3625Q138.84688 30.76875 138.84688 33.346874Q138.84688 33.503124 138.83125 33.815624L131.09688 33.815624Q131.19063 35.51875 132.06563 36.425Q132.94063 37.33125 134.2375 37.33125Q135.20625 37.33125 135.87813 36.83125Q136.56563 36.315624 136.97188 35.20625ZM131.19063 32.3625L136.9875 32.3625Q136.87813 31.065624 136.33125 30.409374Q135.4875 29.39375 134.14375 29.39375Q132.94063 29.39375 132.1125 30.20625Q131.28438 31.003124 131.19063 32.3625ZM146.45625 33.95625L148.2375 33.8Q148.3625 34.8625 148.81563 35.55Q149.28438 36.2375 150.25313 36.675Q151.2375 37.096874 152.47188 37.096874Q153.55 37.096874 154.37813 36.784374Q155.20625 36.45625 155.6125 35.89375Q156.01875 35.33125 156.01875 34.659374Q156.01875 33.9875 155.62813 33.4875Q155.2375 32.9875 154.34688 32.64375Q153.76875 32.409374 151.78438 31.940624Q149.81563 31.471874 149.03438 31.05Q148.00313 30.51875 147.50313 29.721874Q147.00313 28.925 147.00313 27.940624Q147.00313 26.846874 147.6125 25.909374Q148.22188 24.971874 149.40938 24.4875Q150.59688 23.9875 152.03438 23.9875Q153.62813 23.9875 154.84688 24.503124Q156.06563 25.01875 156.70625 26.01875Q157.3625 27.003124 157.40938 28.26875L155.59688 28.409374Q155.45625 27.05 154.6125 26.3625Q153.76875 25.659374 152.1125 25.659374Q150.39375 25.659374 149.59688 26.3Q148.81563 26.925 148.81563 27.8Q148.81563 28.58125 149.37813 29.08125Q149.925 29.58125 152.2375 30.096874Q154.55 30.6125 155.40938 31.003124Q156.65938 31.58125 157.25313 32.471874Q157.84688 33.346874 157.84688 34.503124Q157.84688 35.64375 157.19063 36.659374Q156.53438 37.675 155.3 38.2375Q154.08125 38.8 152.55 38.8Q150.6125 38.8 149.3 38.2375Q147.9875 37.659374 147.2375 36.51875Q146.4875 35.378124 146.45625 33.95625ZM166.65938 38.55L166.65938 37.01875Q165.45625 38.784374 163.37813 38.784374Q162.45625 38.784374 161.65938 38.440624Q160.8625 38.08125 160.47188 37.55Q160.09688 37.01875 159.94063 36.2375Q159.83125 35.721874 159.83125 34.596874L159.83125 28.175L161.58125 28.175L161.58125 33.925Q161.58125 35.3 161.69063 35.784374Q161.8625 36.471874 162.39375 36.878124Q162.94063 37.26875 163.72188 37.26875Q164.51875 37.26875 165.20625 36.8625Q165.90938 36.45625 166.19063 35.76875Q166.4875 35.065624 166.4875 33.7375L166.4875 28.175L168.2375 28.175L168.2375 38.55L166.65938 38.55ZM170.8625 42.51875L170.8625 28.175L172.47188 28.175L172.47188 29.51875Q173.03438 28.7375 173.7375 28.346874Q174.45625 27.940624 175.47188 27.940624Q176.8 27.940624 177.81563 28.628124Q178.83125 29.315624 179.34688 30.565624Q179.87813 31.8 179.87813 33.284374Q179.87813 34.878124 179.3 36.159374Q178.7375 37.425 177.64375 38.1125Q176.55 38.784374 175.34688 38.784374Q174.47188 38.784374 173.76875 38.409374Q173.08125 38.034374 172.62813 37.471874L172.62813 42.51875L170.8625 42.51875ZM172.45625 33.425Q172.45625 35.425 173.26875 36.378124Q174.08125 37.33125 175.2375 37.33125Q176.40938 37.33125 177.2375 36.346874Q178.08125 35.3625 178.08125 33.26875Q178.08125 31.3 177.25313 30.315624Q176.44063 29.315624 175.31563 29.315624Q174.19063 29.315624 173.31563 30.378124Q172.45625 31.425 172.45625 33.425ZM181.8625 42.51875L181.8625 28.175L183.47188 28.175L183.47188 29.51875Q184.03438 28.7375 184.7375 28.346874Q185.45625 27.940624 186.47188 27.940624Q187.8 27.940624 188.81563 28.628124Q189.83125 29.315624 190.34688 30.565624Q190.87813 31.8 190.87813 33.284374Q190.87813 34.878124 190.3 36.159374Q189.7375 37.425 188.64375 38.1125Q187.55 38.784374 186.34688 38.784374Q185.47188 38.784374 184.76875 38.409374Q184.08125 38.034374 183.62813 37.471874L183.62813 42.51875L181.8625 42.51875ZM183.45625 33.425Q183.45625 35.425 184.26875 36.378124Q185.08125 37.33125 186.2375 37.33125Q187.40938 37.33125 188.2375 36.346874Q189.08125 35.3625 189.08125 33.26875Q189.08125 31.3 188.25313 30.315624Q187.44063 29.315624 186.31563 29.315624Q185.19063 29.315624 184.31563 30.378124Q183.45625 31.425 183.45625 33.425ZM192.22188 33.3625Q192.22188 30.4875 193.81563 29.096874Q195.15938 27.940624 197.08125 27.940624Q199.22188 27.940624 200.56563 29.346874Q201.925 30.753124 201.925 33.221874Q201.925 35.221874 201.33125 36.378124Q200.7375 37.51875 199.58125 38.159374Q198.44063 38.784374 197.08125 38.784374Q194.89375 38.784374 193.55 37.39375Q192.22188 35.9875 192.22188 33.3625ZM194.01875 33.3625Q194.01875 35.3625 194.87813 36.346874Q195.75313 37.33125 197.08125 37.33125Q198.39375 37.33125 199.25313 36.346874Q200.12813 35.346874 200.12813 33.3Q200.12813 31.378124 199.25313 30.39375Q198.37813 29.39375 197.08125 29.39375Q195.75313 29.39375 194.87813 30.39375Q194.01875 31.378124 194.01875 33.3625ZM203.84688 38.55L203.84688 28.175L205.425 28.175L205.425 29.753124Q206.03438 28.64375 206.55 28.3Q207.06563 27.940624 207.675 27.940624Q208.56563 27.940624 209.4875 28.503124L208.87813 30.14375Q208.2375 29.753124 207.59688 29.753124Q207.01875 29.753124 206.55 30.1125Q206.09688 30.45625 205.89375 31.065624Q205.6125 32.003124 205.6125 33.1125L205.6125 38.55L203.84688 38.55ZM214.70625 36.971874L214.95625 38.534374Q214.22188 38.690624 213.62813 38.690624Q212.675 38.690624 212.14375 38.39375Q211.62813 38.08125 211.40938 37.596874Q211.19063 37.096874 211.19063 35.51875L211.19063 29.55L209.90938 29.55L209.90938 28.175L211.19063 28.175L211.19063 25.6125L212.94063 24.55L212.94063 28.175L214.70625 28.175L214.70625 29.55L212.94063 29.55L212.94063 35.6125Q212.94063 36.3625 213.03438 36.58125Q213.12813 36.784374 213.33125 36.925Q213.55 37.05 213.94063 37.05Q214.22188 37.05 214.70625 36.971874ZM223.97188 35.20625L225.78438 35.440624Q225.3625 37.01875 224.19063 37.909374Q223.03438 38.784374 221.22188 38.784374Q218.95625 38.784374 217.6125 37.39375Q216.28438 35.9875 216.28438 33.45625Q216.28438 30.83125 217.62813 29.39375Q218.97188 27.940624 221.12813 27.940624Q223.20625 27.940624 224.51875 29.3625Q225.84688 30.76875 225.84688 33.346874Q225.84688 33.503124 225.83125 33.815624L218.09688 33.815624Q218.19063 35.51875 219.06563 36.425Q219.94063 37.33125 221.2375 37.33125Q222.20625 37.33125 222.87813 36.83125Q223.56563 36.315624 223.97188 35.20625ZM218.19063 32.3625L223.9875 32.3625Q223.87813 31.065624 223.33125 30.409374Q222.4875 29.39375 221.14375 29.39375Q219.94063 29.39375 219.1125 30.20625Q218.28438 31.003124 218.19063 32.3625ZM234.59688 38.55L234.59688 37.2375Q233.6125 38.784374 231.69063 38.784374Q230.45625 38.784374 229.40938 38.096874Q228.37813 37.409374 227.8 36.190624Q227.2375 34.971874 227.2375 33.378124Q227.2375 31.815624 227.75313 30.55Q228.26875 29.284374 229.3 28.6125Q230.34688 27.940624 231.6125 27.940624Q232.55 27.940624 233.28438 28.346874Q234.01875 28.7375 234.4875 29.3625L234.4875 24.2375L236.22188 24.2375L236.22188 38.55L234.59688 38.55ZM229.03438 33.378124Q229.03438 35.3625 229.87813 36.346874Q230.72188 37.33125 231.8625 37.33125Q233.01875 37.33125 233.81563 36.39375Q234.62813 35.45625 234.62813 33.51875Q234.62813 31.39375 233.8 30.39375Q232.9875 29.39375 231.78438 29.39375Q230.6125 29.39375 229.81563 30.3625Q229.03438 31.315624 229.03438 33.378124ZM247.75313 38.55L243.8 28.175L245.65938 28.175L247.89375 34.39375Q248.25313 35.39375 248.55 36.471874Q248.78438 35.659374 249.20625 34.503124L251.50313 28.175L253.31563 28.175L249.39375 38.55L247.75313 38.55ZM254.15938 35.45625L255.90938 35.175Q256.05 36.221874 256.72186 36.784374Q257.39374 37.33125 258.59686 37.33125Q259.8 37.33125 260.3781 36.846874Q260.97186 36.346874 260.97186 35.690624Q260.97186 35.096874 260.45624 34.753124Q260.09686 34.51875 258.65936 34.159374Q256.72186 33.659374 255.97188 33.315624Q255.2375 32.95625 254.84688 32.33125Q254.45625 31.690624 254.45625 30.925Q254.45625 30.2375 254.76875 29.64375Q255.09688 29.05 255.64375 28.659374Q256.05 28.3625 256.7531 28.159374Q257.47186 27.940624 258.28436 27.940624Q259.5031 27.940624 260.425 28.3Q261.34686 28.64375 261.78436 29.253124Q262.22186 29.846874 262.39374 30.846874L260.675 31.08125Q260.55 30.284374 259.9875 29.846874Q259.425 29.39375 258.40936 29.39375Q257.1906 29.39375 256.675 29.8Q256.15936 30.190624 256.15936 30.721874Q256.15936 31.065624 256.3781 31.346874Q256.58124 31.628124 257.05 31.815624Q257.3156 31.909374 258.59686 32.253124Q260.47186 32.753124 261.20624 33.08125Q261.9406 33.39375 262.3625 34.003124Q262.78436 34.596874 262.78436 35.503124Q262.78436 36.378124 262.26874 37.159374Q261.7531 37.940624 260.78436 38.3625Q259.8156 38.784374 258.59686 38.784374Q256.58124 38.784374 255.51875 37.940624Q254.45625 37.096874 254.15938 35.45625ZM280.4875 24.2375L282.3781 24.2375L282.3781 32.503124Q282.3781 34.659374 281.89374 35.940624Q281.40936 37.20625 280.1281 38.003124Q278.8625 38.8 276.78436 38.8Q274.76874 38.8 273.4875 38.1125Q272.22186 37.409374 271.675 36.096874Q271.1281 34.784374 271.1281 32.503124L271.1281 24.2375L273.01874 24.2375L273.01874 32.4875Q273.01874 34.3625 273.3625 35.253124Q273.70624 36.128124 274.55 36.6125Q275.39374 37.08125 276.6281 37.08125Q278.70624 37.08125 279.59686 36.14375Q280.4875 35.190624 280.4875 32.4875L280.4875 24.2375ZM284.8625 38.55L284.8625 28.175L286.45624 28.175L286.45624 29.659374Q287.59686 27.940624 289.7531 27.940624Q290.6906 27.940624 291.47186 28.284374Q292.26874 28.6125 292.65936 29.159374Q293.05 29.70625 293.20624 30.45625Q293.3 30.95625 293.3 32.175L293.3 38.55L291.53436 38.55L291.53436 32.2375Q291.53436 31.159374 291.33124 30.628124Q291.1281 30.096874 290.59686 29.784374Q290.08124 29.471874 289.3781 29.471874Q288.2531 29.471874 287.4406 30.190624Q286.6281 30.89375 286.6281 32.878124L286.6281 38.55L284.8625 38.55ZM295.15936 35.45625L296.90936 35.175Q297.05 36.221874 297.72186 36.784374Q298.39374 37.33125 299.59686 37.33125Q300.8 37.33125 301.3781 36.846874Q301.97186 36.346874 301.97186 35.690624Q301.97186 35.096874 301.45624 34.753124Q301.09686 34.51875 299.65936 34.159374Q297.72186 33.659374 296.97186 33.315624Q296.2375 32.95625 295.84686 32.33125Q295.45624 31.690624 295.45624 30.925Q295.45624 30.2375 295.76874 29.64375Q296.09686 29.05 296.64374 28.659374Q297.05 28.3625 297.7531 28.159374Q298.47186 27.940624 299.28436 27.940624Q300.5031 27.940624 301.425 28.3Q302.34686 28.64375 302.78436 29.253124Q303.22186 29.846874 303.39374 30.846874L301.675 31.08125Q301.55 30.284374 300.9875 29.846874Q300.425 29.39375 299.40936 29.39375Q298.1906 29.39375 297.675 29.8Q297.15936 30.190624 297.15936 30.721874Q297.15936 31.065624 297.3781 31.346874Q297.58124 31.628124 298.05 31.815624Q298.3156 31.909374 299.59686 32.253124Q301.47186 32.753124 302.20624 33.08125Q302.9406 33.39375 303.3625 34.003124Q303.78436 34.596874 303.78436 35.503124Q303.78436 36.378124 303.26874 37.159374Q302.7531 37.940624 301.78436 38.3625Q300.8156 38.784374 299.59686 38.784374Q297.58124 38.784374 296.51874 37.940624Q295.45624 37.096874 295.15936 35.45625ZM312.65936 38.55L312.65936 37.01875Q311.45624 38.784374 309.3781 38.784374Q308.45624 38.784374 307.65936 38.440624Q306.8625 38.08125 306.47186 37.55Q306.09686 37.01875 305.9406 36.2375Q305.83124 35.721874 305.83124 34.596874L305.83124 28.175L307.58124 28.175L307.58124 33.925Q307.58124 35.3 307.6906 35.784374Q307.8625 36.471874 308.39374 36.878124Q308.9406 37.26875 309.72186 37.26875Q310.51874 37.26875 311.20624 36.8625Q311.90936 36.45625 312.1906 35.76875Q312.4875 35.065624 312.4875 33.7375L312.4875 28.175L314.2375 28.175L314.2375 38.55L312.65936 38.55ZM316.8625 42.51875L316.8625 28.175L318.47186 28.175L318.47186 29.51875Q319.03436 28.7375 319.7375 28.346874Q320.45624 27.940624 321.47186 27.940624Q322.8 27.940624 323.8156 28.628124Q324.83124 29.315624 325.34686 30.565624Q325.8781 31.8 325.8781 33.284374Q325.8781 34.878124 325.3 36.159374Q324.7375 37.425 323.64374 38.1125Q322.55 38.784374 321.34686 38.784374Q320.47186 38.784374 319.76874 38.409374Q319.08124 38.034374 318.6281 37.471874L318.6281 42.51875L316.8625 42.51875ZM318.45624 33.425Q318.45624 35.425 319.26874 36.378124Q320.08124 37.33125 321.2375 37.33125Q322.40936 37.33125 323.2375 36.346874Q324.08124 35.3625 324.08124 33.26875Q324.08124 31.3 323.2531 30.315624Q322.4406 29.315624 321.3156 29.315624Q320.1906 29.315624 319.3156 30.378124Q318.45624 31.425 318.45624 33.425ZM327.8625 42.51875L327.8625 28.175L329.47186 28.175L329.47186 29.51875Q330.03436 28.7375 330.7375 28.346874Q331.45624 27.940624 332.47186 27.940624Q333.8 27.940624 334.8156 28.628124Q335.83124 29.315624 336.34686 30.565624Q336.8781 31.8 336.8781 33.284374Q336.8781 34.878124 336.3 36.159374Q335.7375 37.425 334.64374 38.1125Q333.55 38.784374 332.34686 38.784374Q331.47186 38.784374 330.76874 38.409374Q330.08124 38.034374 329.6281 37.471874L329.6281 42.51875L327.8625 42.51875ZM329.45624 33.425Q329.45624 35.425 330.26874 36.378124Q331.08124 37.33125 332.2375 37.33125Q333.40936 37.33125 334.2375 36.346874Q335.08124 35.3625 335.08124 33.26875Q335.08124 31.3 334.2531 30.315624Q333.4406 29.315624 332.3156 29.315624Q331.1906 29.315624 330.3156 30.378124Q329.45624 31.425 329.45624 33.425ZM338.22186 33.3625Q338.22186 30.4875 339.8156 29.096874Q341.15936 27.940624 343.08124 27.940624Q345.22186 27.940624 346.5656 29.346874Q347.925 30.753124 347.925 33.221874Q347.925 35.221874 347.33124 36.378124Q346.7375 37.51875 345.58124 38.159374Q344.4406 38.784374 343.08124 38.784374Q340.89374 38.784374 339.55 37.39375Q338.22186 35.9875 338.22186 33.3625ZM340.01874 33.3625Q340.01874 35.3625 340.8781 36.346874Q341.7531 37.33125 343.08124 37.33125Q344.39374 37.33125 345.2531 36.346874Q346.1281 35.346874 346.1281 33.3Q346.1281 31.378124 345.2531 30.39375Q344.3781 29.39375 343.08124 29.39375Q341.7531 29.39375 340.8781 30.39375Q340.01874 31.378124 340.01874 33.3625ZM349.84686 38.55L349.84686 28.175L351.425 28.175L351.425 29.753124Q352.03436 28.64375 352.55 28.3Q353.0656 27.940624 353.675 27.940624Q354.5656 27.940624 355.4875 28.503124L354.8781 30.14375Q354.2375 29.753124 353.59686 29.753124Q353.01874 29.753124 352.55 30.1125Q352.09686 30.45625 351.89374 31.065624Q351.6125 32.003124 351.6125 33.1125L351.6125 38.55L349.84686 38.55ZM360.70624 36.971874L360.95624 38.534374Q360.22186 38.690624 359.6281 38.690624Q358.675 38.690624 358.14374 38.39375Q357.6281 38.08125 357.40936 37.596874Q357.1906 37.096874 357.1906 35.51875L357.1906 29.55L355.90936 29.55L355.90936 28.175L357.1906 28.175L357.1906 25.6125L358.9406 24.55L358.9406 28.175L360.70624 28.175L360.70624 29.55L358.9406 29.55L358.9406 35.6125Q358.9406 36.3625 359.03436 36.58125Q359.1281 36.784374 359.33124 36.925Q359.55 37.05 359.9406 37.05Q360.22186 37.05 360.70624 36.971874ZM369.97186 35.20625L371.78436 35.440624Q371.3625 37.01875 370.1906 37.909374Q369.03436 38.784374 367.22186 38.784374Q364.95624 38.784374 363.6125 37.39375Q362.28436 35.9875 362.28436 33.45625Q362.28436 30.83125 363.6281 29.39375Q364.97186 27.940624 367.1281 27.940624Q369.20624 27.940624 370.51874 29.3625Q371.84686 30.76875 371.84686 33.346874Q371.84686 33.503124 371.83124 33.815624L364.09686 33.815624Q364.1906 35.51875 365.0656 36.425Q365.9406 37.33125 367.2375 37.33125Q368.20624 37.33125 368.8781 36.83125Q369.5656 36.315624 369.97186 35.20625ZM364.1906 32.3625L369.9875 32.3625Q369.8781 31.065624 369.33124 30.409374Q368.4875 29.39375 367.14374 29.39375Q365.9406 29.39375 365.1125 30.20625Q364.28436 31.003124 364.1906 32.3625ZM380.59686 38.55L380.59686 37.2375Q379.6125 38.784374 377.6906 38.784374Q376.45624 38.784374 375.40936 38.096874Q374.3781 37.409374 373.8 36.190624Q373.2375 34.971874 373.2375 33.378124Q373.2375 31.815624 373.7531 30.55Q374.26874 29.284374 375.3 28.6125Q376.34686 27.940624 377.6125 27.940624Q378.55 27.940624 379.28436 28.346874Q380.01874 28.7375 380.4875 29.3625L380.4875 24.2375L382.22186 24.2375L382.22186 38.55L380.59686 38.55ZM375.03436 33.378124Q375.03436 35.3625 375.8781 36.346874Q376.72186 37.33125 377.8625 37.33125Q379.01874 37.33125 379.8156 36.39375Q380.6281 35.45625 380.6281 33.51875Q380.6281 31.39375 379.8 30.39375Q378.9875 29.39375 377.78436 29.39375Q376.6125 29.39375 375.8156 30.3625Q375.03436 31.315624 375.03436 33.378124ZM394.22186 42.753124Q392.76874 40.925 391.76874 38.471874Q390.76874 36.003124 390.76874 33.3625Q390.76874 31.034374 391.51874 28.909374Q392.39374 26.440624 394.22186 23.9875L395.4875 23.9875Q394.3 26.01875 393.925 26.89375Q393.33124 28.2375 392.9875 29.70625Q392.5656 31.534374 392.5656 33.378124Q392.5656 38.065624 395.4875 42.753124L394.22186 42.753124ZM397.51874 31.58125Q397.51874 28.01875 399.425 26.003124Q401.34686 23.971874 404.3781 23.971874Q406.3625 23.971874 407.9406 24.925Q409.53436 25.878124 410.3625 27.58125Q411.20624 29.26875 411.20624 31.409374Q411.20624 33.58125 410.33124 35.3Q409.45624 37.01875 407.83124 37.909374Q406.22186 38.8 404.3625 38.8Q402.34686 38.8 400.7531 37.83125Q399.15936 36.846874 398.33124 35.159374Q397.51874 33.45625 397.51874 31.58125ZM399.47186 31.6125Q399.47186 34.190624 400.8625 35.690624Q402.2531 37.175 404.34686 37.175Q406.4875 37.175 407.8625 35.675Q409.2531 34.159374 409.2531 31.39375Q409.2531 29.659374 408.65936 28.3625Q408.08124 27.05 406.9406 26.33125Q405.8 25.6125 404.3781 25.6125Q402.3781 25.6125 400.925 27.003124Q399.47186 28.378124 399.47186 31.6125ZM420.64374 34.753124L422.3625 34.971874Q422.08124 36.76875 420.90936 37.784374Q419.7531 38.784374 418.05 38.784374Q415.925 38.784374 414.6281 37.39375Q413.33124 36.003124 413.33124 33.409374Q413.33124 31.721874 413.8781 30.471874Q414.4406 29.20625 415.58124 28.58125Q416.72186 27.940624 418.0656 27.940624Q419.7531 27.940624 420.8156 28.8Q421.89374 29.659374 422.20624 31.221874L420.4875 31.4875Q420.2531 30.440624 419.6281 29.925Q419.0031 29.39375 418.1281 29.39375Q416.8 29.39375 415.97186 30.346874Q415.14374 31.3 415.14374 33.346874Q415.14374 35.440624 415.9406 36.39375Q416.7375 37.33125 418.03436 37.33125Q419.0656 37.33125 419.7531 36.70625Q420.45624 36.065624 420.64374 34.753124ZM427.70624 36.971874L427.95624 38.534374Q427.22186 38.690624 426.6281 38.690624Q425.675 38.690624 425.14374 38.39375Q424.6281 38.08125 424.40936 37.596874Q424.1906 37.096874 424.1906 35.51875L424.1906 29.55L422.90936 29.55L422.90936 28.175L424.1906 28.175L424.1906 25.6125L425.9406 24.55L425.9406 28.175L427.70624 28.175L427.70624 29.55L425.9406 29.55L425.9406 35.6125Q425.9406 36.3625 426.03436 36.58125Q426.1281 36.784374 426.33124 36.925Q426.55 37.05 426.9406 37.05Q427.22186 37.05 427.70624 36.971874ZM444.6125 36.8625L444.6125 38.55L435.15936 38.55Q435.14374 37.909374 435.3625 37.33125Q435.72186 36.3625 436.51874 35.425Q437.3156 34.4875 438.8156 33.253124Q441.15936 31.346874 441.97186 30.2375Q442.8 29.1125 442.8 28.1125Q442.8 27.065624 442.05 26.346874Q441.3 25.628124 440.09686 25.628124Q438.83124 25.628124 438.0656 26.39375Q437.3 27.159374 437.3 28.503124L435.4875 28.315624Q435.675 26.3 436.8781 25.2375Q438.09686 24.175 440.14374 24.175Q442.1906 24.175 443.39374 25.315624Q444.59686 26.45625 444.59686 28.14375Q444.59686 29.003124 444.2375 29.846874Q443.89374 30.675 443.08124 31.596874Q442.26874 32.503124 440.3781 34.1125Q438.78436 35.440624 438.33124 35.909374Q437.89374 36.378124 437.59686 36.8625L444.6125 36.8625ZM446.3781 31.4875Q446.3781 28.95625 446.89374 27.409374Q447.425 25.846874 448.45624 25.01875Q449.4875 24.175 451.05 24.175Q452.20624 24.175 453.0656 24.64375Q453.9406 25.096874 454.5031 25.971874Q455.0656 26.846874 455.39374 28.1125Q455.72186 29.3625 455.72186 31.4875Q455.72186 34.003124 455.1906 35.55Q454.675 37.096874 453.64374 37.95625Q452.6281 38.8 451.05 38.8Q448.97186 38.8 447.8 37.315624Q446.3781 35.51875 446.3781 31.4875ZM448.1906 31.4875Q448.1906 35.01875 449.0031 36.190624Q449.83124 37.346874 451.05 37.346874Q452.2531 37.346874 453.08124 36.175Q453.90936 35.003124 453.90936 31.4875Q453.90936 27.95625 453.08124 26.8Q452.2531 25.628124 451.03436 25.628124Q449.8156 25.628124 449.09686 26.659374Q448.1906 27.95625 448.1906 31.4875ZM464.0031 38.55L462.2375 38.55L462.2375 27.346874Q461.6125 27.95625 460.58124 28.565624Q459.55 29.159374 458.72186 29.471874L458.72186 27.76875Q460.20624 27.08125 461.3 26.096874Q462.40936 25.096874 462.8625 24.175L464.0031 24.175L464.0031 38.55ZM471.08124 30.784374Q469.9875 30.378124 469.45624 29.64375Q468.9406 28.89375 468.9406 27.8625Q468.9406 26.3 470.0656 25.2375Q471.1906 24.175 473.05 24.175Q474.925 24.175 476.0656 25.26875Q477.20624 26.346874 477.20624 27.909374Q477.20624 28.909374 476.675 29.64375Q476.15936 30.378124 475.09686 30.784374Q476.425 31.221874 477.1125 32.175Q477.8 33.128124 477.8 34.45625Q477.8 36.3 476.4875 37.55Q475.1906 38.8 473.08124 38.8Q470.95624 38.8 469.65936 37.55Q468.3625 36.284374 468.3625 34.409374Q468.3625 33.01875 469.0656 32.08125Q469.78436 31.128124 471.08124 30.784374ZM470.7375 27.8Q470.7375 28.815624 471.39374 29.471874Q472.05 30.1125 473.08124 30.1125Q474.09686 30.1125 474.7531 29.471874Q475.40936 28.83125 475.40936 27.909374Q475.40936 26.940624 474.7375 26.284374Q474.0656 25.6125 473.0656 25.6125Q472.0656 25.6125 471.39374 26.26875Q470.7375 26.909374 470.7375 27.8ZM470.175 34.425Q470.175 35.175 470.51874 35.878124Q470.8781 36.58125 471.58124 36.971874Q472.28436 37.346874 473.09686 37.346874Q474.3625 37.346874 475.175 36.534374Q476.0031 35.721874 476.0031 34.471874Q476.0031 33.20625 475.15936 32.378124Q474.3156 31.55 473.03436 31.55Q471.8 31.55 470.9875 32.378124Q470.175 33.190624 470.175 34.425ZM485.1906 34.253124L485.1906 32.4875L490.58124 32.4875L490.58124 34.253124L485.1906 34.253124ZM498.51874 31.58125Q498.51874 28.01875 500.425 26.003124Q502.34686 23.971874 505.3781 23.971874Q507.3625 23.971874 508.9406 24.925Q510.53436 25.878124 511.3625 27.58125Q512.20624 29.26875 512.20624 31.409374Q512.20624 33.58125 511.33124 35.3Q510.45624 37.01875 508.83124 37.909374Q507.22186 38.8 505.3625 38.8Q503.34686 38.8 501.7531 37.83125Q500.15936 36.846874 499.33124 35.159374Q498.51874 33.45625 498.51874 31.58125ZM500.47186 31.6125Q500.47186 34.190624 501.8625 35.690624Q503.2531 37.175 505.34686 37.175Q507.4875 37.175 508.8625 35.675Q510.2531 34.159374 510.2531 31.39375Q510.2531 29.659374 509.65936 28.3625Q509.08124 27.05 507.9406 26.33125Q506.8 25.6125 505.3781 25.6125Q503.3781 25.6125 501.925 27.003124Q500.47186 28.378124 500.47186 31.6125ZM521.64374 34.753124L523.3625 34.971874Q523.08124 36.76875 521.90936 37.784374Q520.7531 38.784374 519.05 38.784374Q516.925 38.784374 515.6281 37.39375Q514.33124 36.003124 514.33124 33.409374Q514.33124 31.721874 514.8781 30.471874Q515.4406 29.20625 516.58124 28.58125Q517.72186 27.940624 519.0656 27.940624Q520.7531 27.940624 521.8156 28.8Q522.89374 29.659374 523.20624 31.221874L521.4875 31.4875Q521.2531 30.440624 520.6281 29.925Q520.0031 29.39375 519.1281 29.39375Q517.8 29.39375 516.97186 30.346874Q516.14374 31.3 516.14374 33.346874Q516.14374 35.440624 516.9406 36.39375Q517.7375 37.33125 519.03436 37.33125Q520.0656 37.33125 520.7531 36.70625Q521.45624 36.065624 521.64374 34.753124ZM528.70624 36.971874L528.95624 38.534374Q528.22186 38.690624 527.6281 38.690624Q526.675 38.690624 526.14374 38.39375Q525.6281 38.08125 525.40936 37.596874Q525.1906 37.096874 525.1906 35.51875L525.1906 29.55L523.90936 29.55L523.90936 28.175L525.1906 28.175L525.1906 25.6125L526.9406 24.55L526.9406 28.175L528.70624 28.175L528.70624 29.55L526.9406 29.55L526.9406 35.6125Q526.9406 36.3625 527.03436 36.58125Q527.1281 36.784374 527.33124 36.925Q527.55 37.05 527.9406 37.05Q528.22186 37.05 528.70624 36.971874Z" fill-rule="nonzero"/><path fill="#757575" d="M28.6125 60.8625L28.6125 62.55L19.159374 62.55Q19.14375 61.909374 19.3625 61.33125Q19.721874 60.3625 20.51875 59.425Q21.315624 58.4875 22.815624 57.253124Q25.159374 55.346874 25.971874 54.2375Q26.8 53.1125 26.8 52.1125Q26.8 51.065624 26.05 50.346874Q25.3 49.628124 24.096874 49.628124Q22.83125 49.628124 22.065624 50.39375Q21.3 51.159374 21.3 52.503124L19.4875 52.315624Q19.675 50.3 20.878124 49.2375Q22.096874 48.175 24.14375 48.175Q26.190624 48.175 27.39375 49.315624Q28.596874 50.45625 28.596874 52.14375Q28.596874 53.003124 28.2375 53.846874Q27.89375 54.675 27.08125 55.596874Q26.26875 56.503124 24.378124 58.1125Q22.784374 59.440624 22.33125 59.909374Q21.89375 60.378124 21.596874 60.8625L28.6125 60.8625ZM30.378124 55.4875Q30.378124 52.95625 30.89375 51.409374Q31.425 49.846874 32.45625 49.01875Q33.4875 48.175 35.05 48.175Q36.20625 48.175 37.065624 48.64375Q37.940624 49.096874 38.503124 49.971874Q39.065624 50.846874 39.39375 52.1125Q39.721874 53.3625 39.721874 55.4875Q39.721874 58.003124 39.190624 59.55Q38.675 61.096874 37.64375 61.95625Q36.628124 62.8 35.05 62.8Q32.971874 62.8 31.8 61.315624Q30.378124 59.51875 30.378124 55.4875ZM32.190624 55.4875Q32.190624 59.01875 33.003124 60.190624Q33.83125 61.346874 35.05 61.346874Q36.253124 61.346874 37.08125 60.175Q37.909374 59.003124 37.909374 55.4875Q37.909374 51.95625 37.08125 50.8Q36.253124 49.628124 35.034374 49.628124Q33.815624 49.628124 33.096874 50.659374Q32.190624 51.95625 32.190624 55.4875ZM48.003124 62.55L46.2375 62.55L46.2375 51.346874Q45.6125 51.95625 44.58125 52.565624Q43.55 53.159374 42.721874 53.471874L42.721874 51.76875Q44.20625 51.08125 45.3 50.096874Q46.409374 49.096874 46.8625 48.175L48.003124 48.175L48.003124 62.55ZM52.64375 59.2375L54.33125 59.08125Q54.55 60.26875 55.14375 60.815624Q55.753124 61.346874 56.70625 61.346874Q57.51875 61.346874 58.128124 60.9875Q58.7375 60.6125 59.128124 59.9875Q59.51875 59.3625 59.784374 58.315624Q60.05 57.253124 60.05 56.159374Q60.05 56.05 60.034374 55.815624Q59.503124 56.64375 58.596874 57.175Q57.690624 57.690624 56.6125 57.690624Q54.846874 57.690624 53.6125 56.409374Q52.378124 55.1125 52.378124 53.003124Q52.378124 50.83125 53.659374 49.503124Q54.95625 48.175 56.878124 48.175Q58.284374 48.175 59.440624 48.925Q60.596874 49.675 61.190624 51.065624Q61.8 52.45625 61.8 55.096874Q61.8 57.846874 61.190624 59.471874Q60.596874 61.096874 59.425 61.95625Q58.253124 62.8 56.675 62.8Q54.9875 62.8 53.925 61.8625Q52.8625 60.925 52.64375 59.2375ZM59.846874 52.925Q59.846874 51.409374 59.034374 50.51875Q58.2375 49.628124 57.096874 49.628124Q55.925 49.628124 55.05 50.596874Q54.190624 51.55 54.190624 53.065624Q54.190624 54.440624 55.003124 55.3Q55.83125 56.14375 57.05 56.14375Q58.26875 56.14375 59.05 55.3Q59.846874 54.440624 59.846874 52.925ZM65.01875 66.75313L63.76875 66.75313Q66.675 62.065624 66.675 57.378124Q66.675 55.534374 66.26875 53.7375Q65.925 52.26875 65.33125 50.925Q64.95625 50.034374 63.76875 47.9875L65.01875 47.9875Q66.8625 50.440624 67.7375 52.909374Q68.4875 55.034374 68.4875 57.3625Q68.4875 60.003124 67.47188 62.471874Q66.47188 64.925 65.01875 66.75313Z" fill-rule="nonzero"/></svg>